<svg width="18" height="27" viewBox="0 0 18 27" fill="none" xmlns="http://www.w3.org/2000/svg">
<path fill-rule="evenodd" clip-rule="evenodd" d="M16 9V17.6667C16 21.5327 12.866 24.6667 9 24.6667C5.13401 24.6667 2 21.5327 2 17.6667V8.99999C2 5.134 5.13401 2 9 2C12.866 2 16 5.13401 16 9ZM0 8.99999C0 4.02943 4.02944 0 9 0C13.9706 0 18 4.02944 18 9V17.6667C18 22.6372 13.9706 26.6667 9 26.6667C4.02944 26.6667 0 22.6372 0 17.6667V8.99999ZM10.1974 6.33398C10.1974 5.7817 9.74965 5.33398 9.19736 5.33398C8.64508 5.33398 8.19736 5.7817 8.19736 6.33398V10.334C8.19736 10.8863 8.64508 11.334 9.19736 11.334C9.74965 11.334 10.1974 10.8863 10.1974 10.334V6.33398Z" fill="#222222"/>
</svg>
