<svg width="80" height="108" viewBox="0 0 80 108" fill="none" xmlns="http://www.w3.org/2000/svg">
<path d="M39.4697 35.4697C39.7626 35.1768 40.2374 35.1768 40.5303 35.4697L45.3033 40.2426C45.5962 40.5355 45.5962 41.0104 45.3033 41.3033C45.0104 41.5962 44.5355 41.5962 44.2426 41.3033L40 37.0607L35.7574 41.3033C35.4645 41.5962 34.9896 41.5962 34.6967 41.3033C34.4038 41.0104 34.4038 40.5355 34.6967 40.2426L39.4697 35.4697ZM39.25 108L39.25 36L40.75 36L40.75 108L39.25 108Z" fill="#222222"/>
<rect x="0.5" y="-0.5" width="79" height="79" rx="39.5" transform="matrix(1 0 0 -1 0 79)" stroke="black"/>
</svg>
