<svg
  xmlns="http://www.w3.org/2000/svg"
  version="1.1"
  xmlns:xlink="http://www.w3.org/1999/xlink"
  xmlns:svgjs="http://svgjs.com/svgjs"
  width="512"
  height="512"
  x="0"
  y="0"
  viewBox="0 0 512 512"
  style="enable-background:new 0 0 512 512"
  xml:space="preserve"
  class=""
><g><circle
      xmlns="http://www.w3.org/2000/svg"
      cx="296"
      cy="216"
      r="8"
      fill="#000000"
      data-original="#000000"
      class=""
    /><circle
      xmlns="http://www.w3.org/2000/svg"
      cx="344"
      cy="216"
      r="8"
      fill="#000000"
      data-original="#000000"
      class=""
    /><path
      xmlns="http://www.w3.org/2000/svg"
      d="M339.562,249.344a35.176,35.176,0,0,1-39.125,0,8,8,0,0,0-8.875,13.312,51.129,51.129,0,0,0,56.875,0,8,8,0,1,0-8.875-13.312Z"
      fill="#000000"
      data-original="#000000"
      class=""
    /><path
      xmlns="http://www.w3.org/2000/svg"
      d="M488,200a8,8,0,0,0,8-8V160a8,8,0,0,0-8-8H456a8,8,0,0,0,0,16h14.37l-41.454,47.375-26.787-4.464L415.59,170.53A8.027,8.027,0,0,0,416,168V104a8,8,0,0,0-13.657-5.657c-.743.743-1.527,1.471-2.343,2.186V24a8,8,0,0,0-8-8H328a8,8,0,0,0-8,8v96H304V64a8,8,0,0,0-8-8H232a8,8,0,0,0-8,8V274.556l-14.685-2.447a7.977,7.977,0,0,0-1.315-.1V128a8,8,0,0,0-8-8H136a8,8,0,0,0-8,8V333.755l-1,.8-15-7.5V184a8,8,0,0,0-8-8H40a8,8,0,0,0-8,8V368.684l-14.315,18.4a8,8,0,0,0,12.63,9.824l51.973-66.824,42.134,21.067a8,8,0,0,0,8.576-.908l77.21-61.768L272,298.777V312h-8a8,8,0,0,0-6.656,3.562l-16,24a8,8,0,0,0,1,10.095l4.847,4.847-65.72,21.907a8,8,0,0,0-5.2,5.527l-32,120A8,8,0,0,0,152,512H488a8,8,0,0,0,7.729-10.062l-32-120a8,8,0,0,0-5.2-5.527L392.81,354.5l4.847-4.847a8,8,0,0,0,1-10.095l-16-24A8,8,0,0,0,376,312h-8V295.567a115.486,115.486,0,0,0,9.513-12.135c11.629-16.984,19.542-37.882,21.8-56.769l31.369,5.228a8,8,0,0,0,7.336-2.623L480,181.292V192A8,8,0,0,0,488,200ZM73.685,315.088,48,348.112V192H96V319.056l-12.422-6.211A8,8,0,0,0,73.685,315.088ZM144,136h48V282.555l-48,38.4Zm104.683,56.751L240,166.7V160a24.028,24.028,0,0,1,24-24h80c16.765,0,38.573-4.926,56-15.673V166.7l-8.684,26.049-7.888-19.722A8,8,0,0,0,376,168H264a8,8,0,0,0-7.428,5.029ZM336,32h48v78.787A96.111,96.111,0,0,1,344,120h-8ZM288,72v48H264a39.788,39.788,0,0,0-24,8.022V72ZM240,217.3l.035.1c.346,20.1,8.131,43.905,20.636,63.266L240,277.223ZM344,496H296V465.121L310.034,416h19.932L344,465.121Zm-12.944-96H308.944l-3.577-7.155L320,373.333l14.633,19.512ZM320,350.67l-32-19.2V309.609C298.162,316.417,309.009,320,320,320s21.838-3.583,32-10.391v21.862ZM268.281,328H272v8a8,8,0,0,0,3.884,6.86L308.278,362.3l-13.143,17.525L258.294,342.98ZM224,424a8,8,0,0,0-8,8v64H162.413l28.206-105.774,69.22-23.073,29.587,29.587,6.027,12.054L280.308,461.8A8.013,8.013,0,0,0,280,464v32H232V432A8,8,0,0,0,224,424Zm225.381-33.774L477.587,496H424V432a8,8,0,0,0-16,0v64H360V464a8.013,8.013,0,0,0-.308-2.2l-15.145-53.008,6.027-12.054,29.587-29.587ZM371.719,328l9.987,14.98-36.841,36.841L331.722,362.3l32.394-19.436A8,8,0,0,0,368,336v-8Zm-7.408-53.608C351.428,293.208,335.276,304,320,304s-31.428-10.792-44.311-29.608c-11.828-17.275-19.271-38.937-19.652-56.943L269.417,184H370.584l13.379,33.449C383.582,235.455,376.138,257.117,364.311,274.392Z"
      fill="#000000"
      data-original="#000000"
      class=""
    /></g></svg>
