<svg
  xmlns="http://www.w3.org/2000/svg"
  version="1.1"
  xmlns:xlink="http://www.w3.org/1999/xlink"
  xmlns:svgjs="http://svgjs.com/svgjs"
  width="512"
  height="512"
  x="0"
  y="0"
  viewBox="0 0 64 64"
  style="enable-background:new 0 0 512 512"
  xml:space="preserve"
  class=""
><g><g xmlns="http://www.w3.org/2000/svg" id="Outline"><path
        d="M28,21a14.843,14.843,0,0,1,9.186,3.161,1,1,0,1,0,1.227-1.579A16.826,16.826,0,0,0,28,19,17,17,0,1,0,45,36a16.828,16.828,0,0,0-3.581-10.414,1,1,0,0,0-1.58,1.228A14.908,14.908,0,0,1,41,43.452V35a1,1,0,0,0-1-1H33V24a1,1,0,0,0-1-1H24a1,1,0,0,0-1,1v3H18a1,1,0,0,0-1,1V46.164A14.976,14.976,0,0,1,28,21ZM19,33h1.586l2,2H19Zm6.414,10-2-2H27v2ZM19,41h1.586l2,2H19Zm0-4h1.586l2,2H19Zm8,0v2H25.414l-2-2Zm0-2H25.414l-2-2H27Zm6,11V44h6v2Zm6-4H33V40h6Zm-6,6h3.962A14.956,14.956,0,0,1,33,50.125Zm6-12v2H33V36ZM25,25h6v2H25Zm6,4V50.7a15.059,15.059,0,0,1-3,.3,14.9,14.9,0,0,1-9-3.028V45h9a1,1,0,0,0,1-1V32a1,1,0,0,0-1-1H19V29Z"
        fill="#000000"
        data-original="#000000"
        class=""
      /><path
        d="M21.769,6.464a29.915,29.915,0,0,1,14.278.927.991.991,0,0,0,.3.047,1,1,0,0,0,.3-1.954,31.922,31.922,0,0,0-15.226-.99,1,1,0,1,0,.345,1.97Z"
        fill="#000000"
        data-original="#000000"
        class=""
      /><path
        d="M56.759,27.235a1,1,0,0,0-.717,1.22,30.037,30.037,0,0,1-8.931,29.8,1,1,0,0,0,1.342,1.484,32.033,32.033,0,0,0,9.524-31.789A1,1,0,0,0,56.759,27.235Z"
        fill="#000000"
        data-original="#000000"
        class=""
      /><circle cx="50" cy="14" r="1" fill="#000000" data-original="#000000" class="" /><path
        d="M41.168,10.471a1,1,0,0,0,1.414-1.414l-.891-.89,2.475-2.476.892.892a1,1,0,0,0,1.169.178,8.282,8.282,0,0,1,1.323-.553,1,1,0,0,0,.7-.954V4h3.5V5.254a1,1,0,0,0,.7.954,8.234,8.234,0,0,1,1.322.553,1,1,0,0,0,1.17-.178l.892-.892,2.475,2.476-.891.89a1,1,0,0,0-.18,1.17,8.155,8.155,0,0,1,.554,1.324,1,1,0,0,0,.954.7H61a1,1,0,0,0,0-2H59.449c-.038-.093-.076-.186-.117-.279l1.1-1.1a1,1,0,0,0,0-1.414L56.541,3.57a1,1,0,0,0-1.414,0l-1.1,1.1c-.093-.041-.185-.08-.278-.117V3a1,1,0,0,0-1-1h-5.5a1,1,0,0,0-1,1V4.551c-.093.037-.186.076-.278.117l-1.1-1.1a1,1,0,0,0-1.414,0L39.57,7.459a1,1,0,0,0,0,1.414Z"
        fill="#000000"
        data-original="#000000"
        class=""
      /><path
        d="M61,14a1,1,0,0,0-1,1v.75H58.746a1,1,0,0,0-.954.7,8.155,8.155,0,0,1-.554,1.324,1,1,0,0,0,.18,1.17l.891.89-2.475,2.476-.892-.892a1,1,0,0,0-1.171-.178,8.149,8.149,0,0,1-1.321.553,1,1,0,0,0-.7.954V24h-.656l-2.3-3.986a.941.941,0,0,0-.151-.175,6.024,6.024,0,1,0-4.481-4.48.941.941,0,0,0-.175-.151l-5.972-3.449a1,1,0,0,0-1.33.308l-1.677,2.492a22.491,22.491,0,0,0-2.355-.624l-.206-3a1,1,0,0,0-1-.931h-6.9a1,1,0,0,0-1,.931l-.206,3a22.491,22.491,0,0,0-2.355.624l-1.677-2.492a.987.987,0,0,0-1.169-.363l-.244-.141c.017-.19.025-.378.025-.563s-.008-.373-.025-.563L19.356,9.6a1,1,0,0,0,.367-1.366l-2-3.464A1,1,0,0,0,16.356,4.4l-1.455.84a6.8,6.8,0,0,0-.973-.561V3a1,1,0,0,0-1-1h-4a1,1,0,0,0-1,1V4.681a6.958,6.958,0,0,0-.973.561L5.5,4.4a1,1,0,1,0-1,1.732L6.533,7.308A1,1,0,0,0,7.684,7.2a4.973,4.973,0,0,1,1.578-.911,1,1,0,0,0,.666-.942V4h2V5.349a1,1,0,0,0,.666.943,4.957,4.957,0,0,1,1.579.91,1,1,0,0,0,1.15.106l1.167-.674,1,1.732-1.166.674a1,1,0,0,0-.483,1.047,4.834,4.834,0,0,1,0,1.826.989.989,0,0,0,.309.906l-4.136,2.389a1,1,0,0,0-.4,1.305l.313.639V18h-2V16.651a1,1,0,0,0-.666-.942A4.973,4.973,0,0,1,7.684,14.8a1,1,0,0,0-1.151-.106l-1.167.674-1-1.732,1.166-.674a1,1,0,0,0,.484-1.047,4.78,4.78,0,0,1,0-1.826A1,1,0,0,0,5.532,9.04L3.5,7.866A1,1,0,0,0,2.5,9.6l1.452.838c-.017.19-.024.377-.024.564s.007.374.024.564L2.5,12.4a1,1,0,0,0-.366,1.366l2,3.464A1,1,0,0,0,5.5,17.6l1.455-.84a6.958,6.958,0,0,0,.973.561V19a.972.972,0,0,0,.168.522,1,1,0,0,0-.889.492L3.759,25.986a1,1,0,0,0,.307,1.33l2.493,1.677a22.392,22.392,0,0,0-.624,2.354l-3,.207a1,1,0,0,0-.932,1v6.9a1,1,0,0,0,.932,1l3,.207a22.392,22.392,0,0,0,.624,2.354L4.066,44.684a1,1,0,0,0-.307,1.33l3.448,5.972a1,1,0,0,0,1.306.4l2.706-1.324a22.68,22.68,0,0,0,1.719,1.72l-1.323,2.706a1,1,0,0,0,.4,1.3l5.972,3.449a1,1,0,0,0,1.33-.308l1.677-2.492a22.607,22.607,0,0,0,2.355.624l.206,3a1,1,0,0,0,1,.931l.069,0a1,1,0,0,0,.93-1.067l-.26-3.773a1,1,0,0,0-.827-.916,20.509,20.509,0,0,1-3.527-.936,1,1,0,0,0-1.173.381l-1.585,2.355-4.356-2.515,1.251-2.558a1,1,0,0,0-.257-1.206,20.873,20.873,0,0,1-2.579-2.579,1,1,0,0,0-1.206-.257L8.473,50.178,5.958,45.822l2.355-1.585a1,1,0,0,0,.381-1.173,20.5,20.5,0,0,1-.936-3.527,1,1,0,0,0-.917-.826L4,38.515v-5.03l2.841-.2a1,1,0,0,0,.917-.826,20.5,20.5,0,0,1,.936-3.527,1,1,0,0,0-.381-1.173L5.958,26.178l2.515-4.356,2.558,1.251a1,1,0,0,0,1.206-.257,20.873,20.873,0,0,1,2.579-2.579,1,1,0,0,0,.257-1.206l-1.251-2.558,4.356-2.515,1.585,2.355a1,1,0,0,0,1.173.381,20.473,20.473,0,0,1,3.527-.936,1,1,0,0,0,.827-.916l.2-2.842h5.03l.2,2.842a1,1,0,0,0,.827.916,20.437,20.437,0,0,1,3.526.936,1,1,0,0,0,1.174-.381l1.585-2.355,4.356,2.515-1.251,2.558a1,1,0,0,0,.257,1.206,20.873,20.873,0,0,1,2.579,2.579,1,1,0,0,0,1.206.257l2.558-1.251,2.515,4.356-2.356,1.585a1,1,0,0,0-.38,1.173,20.5,20.5,0,0,1,.936,3.527,1,1,0,0,0,.917.826l2.841.2v5.03l-2.841.2a1,1,0,0,0-.917.826,20.5,20.5,0,0,1-.936,3.527,1,1,0,0,0,.38,1.173l2.356,1.585-2.515,4.356-2.558-1.251a1,1,0,0,0-1.206.257,20.873,20.873,0,0,1-2.579,2.579,1,1,0,0,0-.257,1.206l1.251,2.558-4.356,2.515-1.585-2.355a1,1,0,0,0-1.174-.381,20.474,20.474,0,0,1-3.526.936,1,1,0,0,0-.827.916L30.515,60H28.5a1,1,0,0,0,0,2h2.948a1,1,0,0,0,1-.931l.206-3a22.607,22.607,0,0,0,2.355-.624l1.677,2.492a1,1,0,0,0,1.33.308l5.972-3.449a1,1,0,0,0,.4-1.3l-1.324-2.706a22.51,22.51,0,0,0,1.72-1.72l2.706,1.324a1,1,0,0,0,1.306-.4l3.448-5.972a1,1,0,0,0-.307-1.33l-2.493-1.677a22.637,22.637,0,0,0,.623-2.354l3-.207a1,1,0,0,0,.932-1v-6.9a1,1,0,0,0-.932-1l-3-.207a22.637,22.637,0,0,0-.623-2.354l2.493-1.677A1,1,0,0,0,52.246,26h.5a1,1,0,0,0,1-1V23.449q.14-.056.279-.117l1.1,1.1a1,1,0,0,0,1.414,0l3.889-3.889a1,1,0,0,0,0-1.414l-1.1-1.1c.041-.093.079-.186.117-.279H61a1,1,0,0,0,1-1V15A1,1,0,0,0,61,14ZM11.219,20.939,9.3,20h2.857C11.843,20.312,11.514,20.61,11.219,20.939ZM50,10a4,4,0,1,1-4,4A4,4,0,0,1,50,10Zm-2.513,9.615-2.706,1.324a22.51,22.51,0,0,0-1.72-1.72l1.324-2.706a.978.978,0,0,0,.065-.241,6.027,6.027,0,0,0,3.278,3.278A1.037,1.037,0,0,0,47.487,19.615Z"
        fill="#000000"
        data-original="#000000"
        class=""
      /><path
        d="M13.928,11a3,3,0,1,0-3,3A3,3,0,0,0,13.928,11Zm-4,0a1,1,0,1,1,1,1A1,1,0,0,1,9.928,11Z"
        fill="#000000"
        data-original="#000000"
        class=""
      /></g></g></svg>
