<svg
  xmlns="http://www.w3.org/2000/svg"
  version="1.1"
  xmlns:xlink="http://www.w3.org/1999/xlink"
  xmlns:svgjs="http://svgjs.com/svgjs"
  width="512"
  height="512"
  x="0"
  y="0"
  viewBox="0 0 511 511.99994"
  style="enable-background:new 0 0 512 512"
  xml:space="preserve"
  class=""
><g><path
      xmlns="http://www.w3.org/2000/svg"
      d="m102.898438 247.464844h17.066406v17.066406h-17.066406zm0 0"
      fill="#000000"
      data-original="#000000"
      class=""
    /><path
      xmlns="http://www.w3.org/2000/svg"
      d="m393.03125 247.464844h17.066406v17.066406h-17.066406zm0 0"
      fill="#000000"
      data-original="#000000"
      class=""
    /><path
      xmlns="http://www.w3.org/2000/svg"
      d="m119.964844 85.332031h290.136718v-42.664062c-.03125-23.554688-19.117187-42.6406252-42.667968-42.667969h-221.867188c-23.550781.0273438-42.636718 19.113281-42.667968 42.667969v51.199219h17.066406zm25.601562-68.265625h221.867188c14.136718 0 25.597656 11.460938 25.597656 25.601563v25.597656h-273.066406v-25.597656c0-14.140625 11.464844-25.601563 25.601562-25.601563zm0 0"
      fill="#000000"
      data-original="#000000"
      class=""
    /><path
      xmlns="http://www.w3.org/2000/svg"
      d="m265.03125 460.800781h-17.066406c-4.710938 0-8.53125 3.820313-8.53125 8.53125 0 4.714844 3.820312 8.535157 8.53125 8.535157h17.066406c4.714844 0 8.535156-3.820313 8.535156-8.535157 0-4.710937-3.820312-8.53125-8.535156-8.53125zm0 0"
      fill="#000000"
      data-original="#000000"
      class=""
    /><path
      xmlns="http://www.w3.org/2000/svg"
      d="m119.964844 426.667969v-8.535157h-17.066406v51.199219c.03125 23.554688 19.117187 42.640625 42.667968 42.667969h221.867188c23.550781-.027344 42.636718-19.113281 42.667968-42.667969v-42.664062zm247.46875 68.265625h-221.867188c-14.136718 0-25.601562-11.460938-25.601562-25.601563v-25.601562h273.066406v25.601562c0 14.140625-11.460938 25.601563-25.597656 25.601563zm0 0"
      fill="#000000"
      data-original="#000000"
      class=""
    /><path
      xmlns="http://www.w3.org/2000/svg"
      d="m154.101562 51.199219h17.066407c4.710937 0 8.53125-3.820313 8.53125-8.53125 0-4.714844-3.820313-8.535157-8.53125-8.535157h-17.066407c-4.714843 0-8.535156 3.820313-8.535156 8.535157 0 4.710937 3.820313 8.53125 8.535156 8.53125zm0 0"
      fill="#000000"
      data-original="#000000"
      class=""
    /><path
      xmlns="http://www.w3.org/2000/svg"
      d="m205.300781 51.199219h51.199219c4.714844 0 8.53125-3.820313 8.53125-8.53125 0-4.714844-3.816406-8.535157-8.53125-8.535157h-51.199219c-4.714843 0-8.535156 3.820313-8.535156 8.535157 0 4.710937 3.820313 8.53125 8.535156 8.53125zm0 0"
      fill="#000000"
      data-original="#000000"
      class=""
    /><path
      xmlns="http://www.w3.org/2000/svg"
      d="m171.167969 256c0 47.128906 38.203125 85.332031 85.332031 85.332031s85.332031-38.203125 85.332031-85.332031-38.203125-85.332031-85.332031-85.332031c-47.105469.050781-85.28125 38.226562-85.332031 85.332031zm153.597656 0c0 37.703125-30.5625 68.265625-68.265625 68.265625s-68.269531-30.5625-68.269531-68.265625 30.566406-68.265625 68.269531-68.265625c37.683594.042969 68.222656 30.582031 68.265625 68.265625zm0 0"
      fill="#000000"
      data-original="#000000"
      class=""
    /><path
      xmlns="http://www.w3.org/2000/svg"
      d="m239.433594 221.867188v17.066406h-8.535156c-4.710938 0-8.53125 3.820312-8.53125 8.53125 0 4.714844 3.820312 8.535156 8.53125 8.535156h8.535156v51.199219c0 4.714843 3.820312 8.53125 8.53125 8.53125 4.714844 0 8.535156-3.820313 8.535156-8.53125v-51.199219h8.53125c4.714844 0 8.535156-3.820312 8.535156-8.535156 0-4.710938-3.820312-8.53125-8.535156-8.53125h-8.53125v-17.066406c0-4.714844 3.820312-8.535157 8.53125-8.535157 4.714844 0 8.535156 3.820313 8.535156 8.535157 0 4.710937 3.820313 8.53125 8.53125 8.53125 4.714844 0 8.535156-3.820313 8.535156-8.53125 0-14.140626-11.460937-25.601563-25.601562-25.601563s-25.597656 11.460937-25.597656 25.601563zm0 0"
      fill="#000000"
      data-original="#000000"
      class=""
    /><path
      xmlns="http://www.w3.org/2000/svg"
      d="m401.566406 153.597656h42.667969c4.710937 0 8.53125 3.820313 8.53125 8.535156 0 4.714844-3.820313 8.53125-8.53125 8.53125h-8.535156c-4.710938 0-8.53125 3.820313-8.53125 8.535157 0 4.714843 3.820312 8.53125 8.53125 8.53125h8.535156c14.136719 0 25.597656-11.460938 25.597656-25.597657 0-14.140624-11.460937-25.601562-25.597656-25.601562h-42.667969c-4.714844 0-8.535156 3.820312-8.535156 8.535156 0 4.710938 3.820312 8.53125 8.535156 8.53125zm0 0"
      fill="#000000"
      data-original="#000000"
      class=""
    /><path
      xmlns="http://www.w3.org/2000/svg"
      d="m418.632812 153.597656c-4.710937 0-8.53125 3.820313-8.53125 8.535156v51.199219c0 4.714844 3.820313 8.535157 8.53125 8.535157 4.714844 0 8.535157-3.820313 8.535157-8.535157v-51.199219c0-4.710937-3.820313-8.535156-8.535157-8.535156zm0 0"
      fill="#000000"
      data-original="#000000"
      class=""
    /><path
      xmlns="http://www.w3.org/2000/svg"
      d="m350.367188 170.667969c0 42.414062 34.382812 76.796875 76.800781 76.796875 42.414062 0 76.796875-34.382813 76.796875-76.796875 0-42.417969-34.382813-76.800781-76.796875-76.800781-42.398438.046874-76.753907 34.402343-76.800781 76.800781zm76.800781-59.734375c32.988281 0 59.730469 26.742187 59.730469 59.734375 0 32.988281-26.742188 59.730469-59.730469 59.730469-32.992188 0-59.734375-26.742188-59.734375-59.730469.042968-32.972657 26.761718-59.691407 59.734375-59.734375zm0 0"
      fill="#000000"
      data-original="#000000"
      class=""
    /><path
      xmlns="http://www.w3.org/2000/svg"
      d="m427.167969 264.53125c-42.417969 0-76.800781 34.386719-76.800781 76.800781 0 42.417969 34.382812 76.800781 76.800781 76.800781 42.414062 0 76.796875-34.382812 76.796875-76.800781-.046875-42.394531-34.402344-76.75-76.796875-76.800781zm0 136.535156c-32.992188 0-59.734375-26.742187-59.734375-59.734375 0-32.988281 26.742187-59.730469 59.734375-59.730469 32.988281 0 59.730469 26.742188 59.730469 59.730469-.039063 32.972657-26.761719 59.691407-59.730469 59.734375zm0 0"
      fill="#000000"
      data-original="#000000"
      class=""
    /><path
      xmlns="http://www.w3.org/2000/svg"
      d="m423.964844 300.535156c-3.675782-2.945312-9.046875-2.351562-11.992188 1.328125-1.214844 1.515625-1.875 3.394531-1.875 5.335938v68.265625c0 4.714844 3.820313 8.535156 8.53125 8.539062 1.941406 0 3.824219-.660156 5.335938-1.875l42.667968-34.132812c3.679688-2.941406 4.277344-8.3125 1.335938-11.992188-.394531-.492187-.84375-.941406-1.335938-1.335937zm3.203125 57.171875v-32.75l20.480469 16.375zm0 0"
      fill="#000000"
      data-original="#000000"
      class=""
    /><path
      xmlns="http://www.w3.org/2000/svg"
      d="m43.167969 238.933594h85.332031c14.136719 0 25.601562-11.460938 25.601562-25.601563v-85.332031c0-14.136719-11.460937-25.601562-25.601562-25.601562h-85.332031c-14.140625 0-25.601563 11.460937-25.601563 25.601562v85.332031c0 14.140625 11.460938 25.601563 25.601563 25.601563zm85.332031-17.066406h-85.332031c-4.714844 0-8.535157-3.820313-8.535157-8.535157v-42.664062h27.171876c4.621093 13.269531 19.128906 20.28125 32.398437 15.65625 7.335937-2.554688 13.105469-8.320313 15.660156-15.65625h27.167969v42.664062c0 4.714844-3.816406 8.535157-8.53125 8.535157zm-51.199219-59.734376c0-4.710937 3.820313-8.53125 8.53125-8.53125 4.714844 0 8.535157 3.820313 8.535157 8.53125 0 4.714844-3.820313 8.535157-8.535157 8.535157-4.710937 0-8.53125-3.820313-8.53125-8.535157zm-34.132812-42.667968h85.332031c4.714844 0 8.53125 3.820312 8.53125 8.535156v25.601562h-27.167969c-4.625-13.273437-19.128906-20.285156-32.402343-15.660156-7.335938 2.554688-13.101563 8.324219-15.65625 15.660156h-27.171876v-25.601562c0-4.714844 3.820313-8.535156 8.535157-8.535156zm0 0"
      fill="#000000"
      data-original="#000000"
      class=""
    /><path
      xmlns="http://www.w3.org/2000/svg"
      d="m102.898438 332.800781c4.714843 0 8.535156-3.820312 8.535156-8.535156 0-4.710937-3.820313-8.53125-8.535156-8.53125h-25.597657v-17.066406c0-4.714844-3.820312-8.535157-8.535156-8.535157-4.710937 0-8.53125 3.820313-8.53125 8.535157v17.066406h-8.535156c-4.710938 0-8.53125 3.820313-8.53125 8.53125 0 4.714844 3.820312 8.535156 8.53125 8.535156h8.535156v34.132813c0 14.136718 11.460937 25.601562 25.597656 25.601562 14.140625 0 25.601563-11.464844 25.601563-25.601562 0-4.714844-3.820313-8.53125-8.535156-8.53125-4.710938 0-8.53125 3.816406-8.53125 8.53125s-3.820313 8.53125-8.53125 8.53125c-4.714844 0-8.535157-3.816406-8.535157-8.53125v-34.132813zm0 0"
      fill="#000000"
      data-original="#000000"
      class=""
    /><path
      xmlns="http://www.w3.org/2000/svg"
      d="m154.101562 341.332031c0-42.414062-34.386718-76.800781-76.800781-76.800781-42.417969 0-76.800781 34.386719-76.800781 76.800781 0 42.417969 34.382812 76.800781 76.800781 76.800781 42.394531-.046874 76.753907-34.402343 76.800781-76.800781zm-76.800781 59.734375c-32.992187 0-59.734375-26.742187-59.734375-59.734375 0-32.988281 26.742188-59.730469 59.734375-59.730469 32.988281 0 59.730469 26.742188 59.730469 59.730469-.039062 32.972657-26.757812 59.691407-59.730469 59.734375zm0 0"
      fill="#000000"
      data-original="#000000"
      class=""
    /></g></svg>
