<svg width="83" height="80" viewBox="0 0 83 80" fill="none" xmlns="http://www.w3.org/2000/svg">
<path d="M26.0941 40.3639H11.7047C11.8356 42.1369 12.5223 43.5747 13.765 44.6774C15.0078 45.7585 16.5775 46.299 18.4743 46.299C19.5426 46.299 20.5237 46.1152 21.4176 45.7477C22.3115 45.3585 23.0854 44.7963 23.7395 44.0612L25.0476 45.5531C24.2846 46.4612 23.3253 47.1531 22.1698 47.6287C21.036 48.1044 19.7824 48.3423 18.4089 48.3423C16.6429 48.3423 15.0732 47.9747 13.6996 47.2396C12.3479 46.4828 11.2905 45.445 10.5274 44.126C9.76435 42.8071 9.38281 41.3152 9.38281 39.6504C9.38281 37.9855 9.74255 36.4936 10.462 35.1747C11.2033 33.8558 12.2062 32.8287 13.4707 32.0936C14.757 31.3585 16.196 30.9909 17.7875 30.9909C19.3791 30.9909 20.8071 31.3585 22.0716 32.0936C23.3362 32.8287 24.3282 33.8558 25.0476 35.1747C25.7671 36.472 26.1268 37.9639 26.1268 39.6504L26.0941 40.3639ZM17.7875 32.9693C16.1306 32.9693 14.7352 33.499 13.6015 34.5585C12.4896 35.5963 11.8574 36.9585 11.7047 38.645H23.903C23.7504 36.9585 23.1072 35.5963 21.9735 34.5585C20.8616 33.499 19.4663 32.9693 17.7875 32.9693Z" fill="#222222"/>
<path d="M46.5505 24.1152V48.1801H44.3267V44.8071C43.629 45.9531 42.7024 46.8287 41.5469 47.4342C40.4132 48.0396 39.1269 48.3423 37.6879 48.3423C36.0746 48.3423 34.6138 47.9747 33.3057 47.2396C31.9976 46.5044 30.9729 45.4774 30.2316 44.1585C29.4903 42.8396 29.1197 41.3369 29.1197 39.6504C29.1197 37.9639 29.4903 36.4612 30.2316 35.1423C30.9729 33.8233 31.9976 32.8071 33.3057 32.0936C34.6138 31.3585 36.0746 30.9909 37.6879 30.9909C39.0833 30.9909 40.3369 31.2828 41.4488 31.8666C42.5825 32.4287 43.5091 33.2612 44.2285 34.3639V24.1152H46.5505ZM37.8841 46.299C39.0833 46.299 40.1625 46.0287 41.1218 45.4882C42.1028 44.926 42.8659 44.1369 43.411 43.1206C43.9778 42.1044 44.2613 40.9477 44.2613 39.6504C44.2613 38.3531 43.9778 37.1963 43.411 36.1801C42.8659 35.1639 42.1028 34.3855 41.1218 33.845C40.1625 33.2828 39.0833 33.0017 37.8841 33.0017C36.6632 33.0017 35.5622 33.2828 34.5811 33.845C33.6218 34.3855 32.8587 35.1639 32.2919 36.1801C31.7468 37.1963 31.4743 38.3531 31.4743 39.6504C31.4743 40.9477 31.7468 42.1044 32.2919 43.1206C32.8587 44.1369 33.6218 44.926 34.5811 45.4882C35.5622 46.0287 36.6632 46.299 37.8841 46.299Z" fill="#222222"/>
<path d="M57.6282 48.3423C56.2328 48.3423 54.892 48.1477 53.6057 47.7585C52.3412 47.3477 51.3492 46.8396 50.6297 46.2342L51.6762 44.4179C52.3957 44.9801 53.3004 45.445 54.3906 45.8125C55.4807 46.1585 56.6144 46.3314 57.7917 46.3314C59.3614 46.3314 60.5169 46.0936 61.2582 45.6179C62.0213 45.1206 62.4028 44.4287 62.4028 43.5423C62.4028 42.9152 62.1957 42.4287 61.7815 42.0828C61.3672 41.7152 60.844 41.445 60.2117 41.272C59.5795 41.0774 58.7401 40.8936 57.6936 40.7206C56.2982 40.4612 55.1754 40.2017 54.3251 39.9423C53.4749 39.6612 52.7445 39.1963 52.134 38.5477C51.5454 37.899 51.251 37.0017 51.251 35.8558C51.251 34.4287 51.8506 33.2612 53.0497 32.3531C54.2488 31.445 55.9167 30.9909 58.0533 30.9909C59.1652 30.9909 60.2771 31.1423 61.389 31.445C62.5009 31.726 63.4166 32.1044 64.1361 32.5801L63.1223 34.4287C61.7052 33.4558 60.0155 32.9693 58.0533 32.9693C56.5708 32.9693 55.448 33.2287 54.6849 33.7477C53.9436 34.2666 53.573 34.9477 53.573 35.7909C53.573 36.4396 53.7801 36.9585 54.1943 37.3477C54.6304 37.7369 55.1645 38.0287 55.7968 38.2233C56.4291 38.3963 57.3011 38.5801 58.413 38.7747C59.7866 39.0342 60.8876 39.2936 61.7161 39.5531C62.5445 39.8125 63.2531 40.2558 63.8418 40.8828C64.4304 41.5098 64.7248 42.3747 64.7248 43.4774C64.7248 44.9693 64.0925 46.1585 62.828 47.045C61.5852 47.9098 59.852 48.3423 57.6282 48.3423Z" fill="#222222"/>
<path d="M75.0347 30.9909C77.2803 30.9909 79.0027 31.5531 80.2018 32.6774C81.4009 33.7801 82.0005 35.4233 82.0005 37.6071V48.1801H79.7766V45.5206C79.2534 46.4071 78.4794 47.099 77.4547 47.5963C76.4518 48.0936 75.2527 48.3423 73.8574 48.3423C71.9388 48.3423 70.4126 47.8882 69.2789 46.9801C68.1452 46.072 67.5784 44.872 67.5784 43.3801C67.5784 41.9314 68.1016 40.7639 69.1481 39.8774C70.2164 38.9909 71.9061 38.5477 74.2171 38.5477H79.6785V37.5098C79.6785 36.0396 79.2643 34.926 78.4358 34.1693C77.6073 33.3909 76.3973 33.0017 74.8058 33.0017C73.7157 33.0017 72.6692 33.1855 71.6663 33.5531C70.6634 33.899 69.8022 34.3855 69.0827 35.0125L68.0362 33.2936C68.9083 32.5585 69.9548 31.9963 71.1757 31.6071C72.3966 31.1963 73.683 30.9909 75.0347 30.9909ZM74.2171 46.526C75.5252 46.526 76.648 46.2342 77.5855 45.6504C78.523 45.045 79.2207 44.1801 79.6785 43.0558V40.2666H74.2825C71.3392 40.2666 69.8676 41.2828 69.8676 43.3152C69.8676 44.3098 70.2491 45.099 71.0122 45.6828C71.7753 46.245 72.8436 46.526 74.2171 46.526Z" fill="#222222"/>
<path fill-rule="evenodd" clip-rule="evenodd" d="M0 0H80.6678V23.7346H79.1813V1.4742H1.48651V78.5258H79.1813V55.774H80.6678V80H0V0Z" fill="#222222"/>
</svg>
