<svg width="82" height="82" viewBox="0 0 82 82" fill="none" xmlns="http://www.w3.org/2000/svg">
<path d="M1 1H81V81H13.5806C6.63255 81 1 75.3677 1 68.4194V1Z" stroke="#222222"/>
<path d="M16.207 51.8282C17.6908 51.8282 18.4326 52.8924 18.4326 55.0209C18.4326 55.9919 18.2306 56.7688 17.8267 57.3514C17.4227 57.934 16.8363 58.2253 16.0672 58.2253C15.3991 58.2253 14.8554 57.9922 14.4359 57.5262V60.4509L13.457 60.5675V51.9564H14.296L14.3776 52.8186C14.6028 52.5001 14.8708 52.2554 15.1816 52.0845C15.5001 51.9136 15.8419 51.8282 16.207 51.8282ZM15.9739 52.6205C15.6632 52.6205 15.3758 52.7137 15.1117 52.9002C14.8554 53.0866 14.6301 53.3197 14.4359 53.5993V56.6406C14.599 56.8814 14.801 57.0717 15.0417 57.2115C15.2903 57.3436 15.5584 57.4097 15.8458 57.4097C16.3585 57.4097 16.7392 57.2155 16.9877 56.827C17.2441 56.4308 17.3723 55.8288 17.3723 55.0209C17.3723 54.213 17.2596 53.6109 17.0343 53.2148C16.809 52.8186 16.4556 52.6205 15.9739 52.6205ZM22.7861 51.8282C23.6328 51.8282 24.2814 52.1156 24.732 52.6904C25.1903 53.2575 25.4195 54.0344 25.4195 55.0209C25.4195 55.9842 25.1865 56.761 24.7203 57.3514C24.262 57.934 23.6134 58.2253 22.7744 58.2253C21.9277 58.2253 21.2751 57.9418 20.8168 57.3747C20.3584 56.7998 20.1293 56.0191 20.1293 55.0326C20.1293 54.0615 20.3584 53.2847 20.8168 52.7021C21.2829 52.1195 21.9393 51.8282 22.7861 51.8282ZM22.7861 52.6322C22.2501 52.6322 21.85 52.8302 21.5859 53.2264C21.3217 53.6226 21.1897 54.2247 21.1897 55.0326C21.1897 55.8404 21.3179 56.4425 21.5742 56.8387C21.8383 57.2271 22.2384 57.4213 22.7744 57.4213C23.3104 57.4213 23.7066 57.2271 23.963 56.8387C24.227 56.4425 24.3591 55.8366 24.3591 55.0209C24.3591 54.213 24.227 53.6149 23.963 53.2264C23.7066 52.8302 23.3143 52.6322 22.7861 52.6322ZM28.4096 52.8069C28.6504 52.4962 28.9456 52.2554 29.2952 52.0845C29.6448 51.9136 30.006 51.8282 30.3788 51.8282C31.5286 51.8282 32.1034 52.4341 32.1034 53.6459V58.0971H31.1246V53.6576C31.1246 53.2925 31.0392 53.0284 30.8683 52.8652C30.6974 52.6943 30.4255 52.6089 30.0526 52.6089C29.7341 52.6089 29.4272 52.7098 29.1321 52.9118C28.8368 53.1138 28.5961 53.3507 28.4096 53.6226V58.0971H27.4308V49.4977L28.4096 49.3928V52.8069ZM36.7598 51.8282C37.6065 51.8282 38.2552 52.1156 38.7057 52.6904C39.1641 53.2575 39.3932 54.0344 39.3932 55.0209C39.3932 55.9842 39.1602 56.761 38.6941 57.3514C38.2357 57.934 37.5871 58.2253 36.7481 58.2253C35.9014 58.2253 35.2489 57.9418 34.7905 57.3747C34.3322 56.7998 34.103 56.0191 34.103 55.0326C34.103 54.0615 34.3322 53.2847 34.7905 52.7021C35.2566 52.1195 35.913 51.8282 36.7598 51.8282ZM36.7598 52.6322C36.2238 52.6322 35.8237 52.8302 35.5596 53.2264C35.2955 53.6226 35.1634 54.2247 35.1634 55.0326C35.1634 55.8404 35.2916 56.4425 35.5479 56.8387C35.8121 57.2271 36.2121 57.4213 36.7481 57.4213C37.2841 57.4213 37.6803 57.2271 37.9367 56.8387C38.2008 56.4425 38.3328 55.8366 38.3328 55.0209C38.3328 54.213 38.2008 53.6149 37.9367 53.2264C37.6803 52.8302 37.2881 52.6322 36.7598 52.6322ZM45.5528 51.8282C45.8014 51.8282 46.0888 51.8709 46.4151 51.9564L46.2752 54.0421H45.4829V52.7254H45.4246C44.4769 52.7254 43.805 53.4012 43.4088 54.7529V57.3397H44.6556V58.0971H41.4628V57.3397H42.4299V52.7137H41.4628V51.9564H43.1641L43.3505 53.4129C43.5991 52.8846 43.8943 52.4884 44.2361 52.2244C44.5857 51.9602 45.0246 51.8282 45.5528 51.8282ZM50.7219 49.0898C50.9394 49.0898 51.1142 49.1558 51.2463 49.2879C51.3783 49.4122 51.4443 49.5754 51.4443 49.7773C51.4443 49.9793 51.3783 50.1463 51.2463 50.2784C51.1142 50.4027 50.9394 50.4648 50.7219 50.4648C50.5121 50.4648 50.3412 50.4027 50.2092 50.2784C50.0849 50.1463 50.0228 49.9793 50.0228 49.7773C50.0228 49.5754 50.0849 49.4122 50.2092 49.2879C50.3412 49.1558 50.5121 49.0898 50.7219 49.0898ZM51.5026 57.3164H53.2272V58.0971H48.6361V57.3164H50.5238V52.7371H48.6944V51.9564H51.5026V57.3164ZM57.7787 56.5823C57.7787 57.1338 58.1166 57.4097 58.7924 57.4097C59.111 57.4097 59.4528 57.3397 59.8179 57.1999L60.0742 57.9107C59.6858 58.1204 59.2003 58.2253 58.6177 58.2253C58.0661 58.2253 57.6234 58.0738 57.2893 57.7709C56.963 57.4679 56.7999 57.0562 56.7999 56.5357V50.2667H54.9122V49.486H57.7787V56.5823ZM65.3247 58.1321C65.0841 58.839 64.7539 59.4022 64.3345 59.8217C63.915 60.2412 63.3285 60.4898 62.5749 60.5675L62.4351 59.7867C62.8468 59.7168 63.1731 59.608 63.4139 59.4605C63.6625 59.3206 63.8567 59.142 63.9965 58.9244C64.1363 58.7147 64.2645 58.4389 64.381 58.0971H64.0548L61.9224 51.9564H62.9594L64.719 57.3514L66.455 51.9564H67.4692L65.3247 58.1321ZM71.6828 49.0898C71.9002 49.0898 72.075 49.1558 72.2066 49.2879C72.3389 49.4122 72.4047 49.5754 72.4047 49.7773C72.4047 49.9793 72.3389 50.1463 72.2066 50.2784C72.075 50.4027 71.9002 50.4648 71.6828 50.4648C71.4731 50.4648 71.3021 50.4027 71.1699 50.2784C71.0454 50.1463 70.9834 49.9793 70.9834 49.7773C70.9834 49.5754 71.0454 49.4122 71.1699 49.2879C71.3021 49.1558 71.4731 49.0898 71.6828 49.0898ZM72.4634 57.3164H74.1879V58.0971H69.597V57.3164H71.4847V52.7371H69.655V51.9564H72.4634V57.3164Z" fill="#222222"/>
<path d="M23.1992 63.5859C24.6829 63.5859 25.4248 64.6502 25.4248 66.7786C25.4248 67.7495 25.2228 68.5263 24.8188 69.1089C24.4149 69.6915 23.8284 69.9831 23.0593 69.9831C22.3913 69.9831 21.8475 69.7502 21.428 69.2837V72.2089L20.4492 72.325V63.7141H21.2882L21.3697 64.5764C21.595 64.2579 21.863 64.0132 22.1737 63.8423C22.4923 63.6714 22.8341 63.5859 23.1992 63.5859ZM22.9661 64.3783C22.6554 64.3783 22.368 64.4715 22.1039 64.658C21.8475 64.8444 21.6222 65.0775 21.428 65.3573V68.3986C21.5912 68.6392 21.7931 68.8295 22.0339 68.9695C22.2825 69.1011 22.5505 69.1676 22.8379 69.1676C23.3506 69.1676 23.7313 68.9734 23.9799 68.585C24.2363 68.1889 24.3644 67.5863 24.3644 66.7786C24.3644 65.9708 24.2517 65.3689 24.0265 64.9726C23.8012 64.5764 23.4477 64.3783 22.9661 64.3783ZM31.8407 68.5147C31.8407 68.756 31.8795 68.9347 31.9572 69.0508C32.0349 69.1598 32.1631 69.2411 32.3417 69.2953L32.097 69.9947C31.4989 69.9173 31.126 69.6256 30.9784 69.1205C30.7609 69.4005 30.4851 69.614 30.1511 69.7618C29.8248 69.9095 29.4597 69.9831 29.0557 69.9831C28.4421 69.9831 27.9566 69.8121 27.5992 69.4702C27.2497 69.1289 27.0748 68.6702 27.0748 68.0953C27.0748 67.4663 27.3195 66.9805 27.809 66.6386C28.3061 66.2973 29.0169 66.1263 29.9413 66.1263H30.8503V65.625C30.8503 65.19 30.7259 64.8793 30.4773 64.6929C30.2288 64.4987 29.8675 64.4016 29.3937 64.4016C28.9276 64.4016 28.3955 64.5065 27.7973 64.7162L27.5293 63.9704C28.2517 63.7141 28.9237 63.5859 29.5452 63.5859C30.2909 63.5859 30.858 63.7607 31.2464 64.1103C31.6426 64.4598 31.8407 64.9454 31.8407 65.5669V68.5147ZM29.3004 69.2489C29.6034 69.2489 29.8908 69.1715 30.1628 69.016C30.4424 68.8605 30.6715 68.6469 30.8503 68.3753V66.8018H29.9646C29.3121 66.8018 28.8421 66.9108 28.5547 67.1282C28.2673 67.3456 28.1235 67.6644 28.1235 68.0837C28.1235 68.8605 28.5159 69.2489 29.3004 69.2489ZM38.5712 63.5859C38.8198 63.5859 39.1072 63.6286 39.4335 63.7141L39.2937 65.7998H38.5013V64.4831H38.443C37.4953 64.4831 36.8233 65.159 36.4272 66.5108V69.0973H37.674V69.8547H34.4812V69.0973H35.4484V64.4715H34.4812V63.7141H36.1824L36.3689 65.1706C36.6175 64.6424 36.9127 64.2462 37.2545 63.9821C37.6041 63.718 38.043 63.5859 38.5712 63.5859ZM46.2922 69.5405C46.0824 69.6798 45.8261 69.7889 45.5231 69.8663C45.2279 69.9444 44.9327 69.9831 44.6375 69.9831C43.9928 69.9831 43.4879 69.816 43.1227 69.4818C42.7576 69.1405 42.5751 68.6934 42.5751 68.1418V64.4831H41.1652V63.7141H42.5751V62.3275L43.5539 62.2109V63.7141H45.6862L45.5581 64.4831H43.5539V68.1302C43.5539 68.4798 43.6471 68.7398 43.8335 68.9108C44.02 69.0818 44.319 69.1676 44.7308 69.1676C45.1503 69.1676 45.5426 69.0702 45.9077 68.876L46.2922 69.5405ZM48.3967 63.7141H49.2357L49.3172 64.5764C49.5581 64.2657 49.861 64.0248 50.2261 63.8539C50.599 63.6753 50.9719 63.5859 51.3448 63.5859C52.4944 63.5859 53.0693 64.1918 53.0693 65.4037V69.8547H52.0905V66.1263C52.0905 65.6676 52.0633 65.3186 52.009 65.0775C51.9623 64.8366 51.8652 64.658 51.7176 64.5414C51.5701 64.4249 51.3448 64.3666 51.0418 64.3666C50.7077 64.3666 50.3932 64.4677 50.0979 64.6696C49.8028 64.8716 49.5619 65.1124 49.3755 65.3921V69.8547H48.3967V63.7141ZM56.1643 67.1282C56.1876 67.8044 56.3624 68.3127 56.6886 68.6547C57.0227 68.9966 57.4422 69.1676 57.9471 69.1676C58.2501 69.1676 58.5259 69.125 58.7744 69.0392C59.0308 68.9463 59.3026 68.8063 59.5901 68.6198L60.0445 69.2721C59.7571 69.4973 59.427 69.6721 59.0541 69.7966C58.689 69.9211 58.32 69.9831 57.9471 69.9831C57.0615 69.9831 56.3701 69.696 55.873 69.1205C55.3836 68.5379 55.1389 67.7611 55.1389 66.7902C55.1389 66.1766 55.2477 65.6289 55.4652 65.1473C55.6826 64.658 55.9934 64.2773 56.3973 64.0054C56.8013 63.7258 57.2713 63.5859 57.8073 63.5859C58.5841 63.5859 59.1939 63.8578 59.6367 64.4016C60.0873 64.9376 60.3125 65.6715 60.3125 66.6037C60.3125 66.7824 60.3048 66.9573 60.2892 67.1282H56.1643ZM57.819 64.3899C57.3451 64.3899 56.9605 64.5608 56.6653 64.9026C56.3701 65.2366 56.2032 65.7302 56.1643 66.3824H59.357C59.3493 65.7379 59.2095 65.2444 58.9375 64.9026C58.6657 64.5608 58.2928 64.3899 57.819 64.3899ZM66.5187 63.5859C66.7671 63.5859 67.0548 63.6286 67.3813 63.7141L67.2413 65.7998H66.449V64.4831H66.3903C65.4426 64.4831 64.7708 65.159 64.3746 66.5108V69.0973H65.6213V69.8547H62.4287V69.0973H63.3959V64.4715H62.4287V63.7141H64.13L64.3164 65.1706C64.565 64.6424 64.8602 64.2462 65.2019 63.9821C65.5516 63.718 65.9903 63.5859 66.5187 63.5859ZM71.4548 69.1792C71.9206 69.1792 72.2897 69.0895 72.5619 68.9108C72.8335 68.7321 72.9697 68.4953 72.9697 68.2005C72.9697 67.9986 72.9348 67.8353 72.8645 67.7108C72.7948 67.5786 72.6548 67.4624 72.4452 67.3611C72.2355 67.2527 71.9168 67.1437 71.4897 67.0353C70.7748 66.8566 70.2471 66.6424 69.9052 66.394C69.5632 66.1379 69.3922 65.7611 69.3922 65.2637C69.3922 64.7511 69.6058 64.3433 70.0329 64.0404C70.4606 63.7374 71.0239 63.5859 71.7226 63.5859C72.5774 63.5859 73.3232 63.8112 73.96 64.2618L73.5174 64.9376C73.2606 64.7589 72.9929 64.623 72.7135 64.5298C72.4335 64.4287 72.111 64.3783 71.7458 64.3783C70.8606 64.3783 70.4174 64.6463 70.4174 65.1823C70.4174 65.3689 70.4645 65.5205 70.5574 65.6366C70.6587 65.7534 70.8181 65.8579 71.0355 65.9515C71.2606 66.0366 71.5948 66.1418 72.0374 66.2657C72.7052 66.4444 73.2026 66.674 73.529 66.9534C73.8632 67.2256 74.0297 67.6256 74.0297 68.1534C74.0297 68.7676 73.7813 69.2257 73.2839 69.5289C72.7871 69.8315 72.1774 69.9831 71.4548 69.9831C70.4916 69.9831 69.6916 69.7076 69.0542 69.156L69.6019 68.5147C69.8503 68.7166 70.1342 68.8798 70.4529 69.0044C70.771 69.1205 71.1052 69.1792 71.4548 69.1792Z" fill="#222222"/>
<path d="M13.62 69.285C14.0897 69.285 14.4705 68.9042 14.4705 68.4345C14.4705 67.9648 14.0897 67.584 13.62 67.584C13.1503 67.584 12.7695 67.9648 12.7695 68.4345C12.7695 68.9042 13.1503 69.285 13.62 69.285Z" fill="#222222"/>
</svg>
