<svg width="197" height="80" viewBox="0 0 197 80" fill="none" xmlns="http://www.w3.org/2000/svg">
<rect width="196.923" height="80" fill="#222222"/>
<path d="M54.101 57.7508H50.6056L43.6388 38.0303L44.0936 37.3714H50.031V23.8164H41.4841V57.7508H38.1562V20.9219H50.7014C51.4835 20.9219 52.1219 21.165 52.6167 21.6514C53.1115 22.1377 53.3589 22.7653 53.3589 23.534V37.5126C53.3589 39.2854 52.1458 40.1718 49.7198 40.1718C49.4804 40.1718 49.1293 40.1639 48.6664 40.1482C48.2035 40.1169 47.8684 40.1012 47.6609 40.1012C49.8156 45.9687 51.9623 51.8519 54.101 57.7508Z" fill="white"/>
<path d="M73.8381 57.7508H61.5324V20.9219H73.6945V23.8164H64.8602V37.5596H72.9044V40.5012H64.8602V54.8563H73.8381V57.7508Z" fill="white"/>
<path d="M96.1369 20.9219L89.6488 57.845H86.5125L80.0245 20.9219H83.3284L87.9729 50.2438C87.9729 50.2438 88.0208 51.044 88.1166 52.6442C88.1325 52.0951 88.1884 51.295 88.2842 50.2438L92.9288 20.9219H96.1369Z" fill="white"/>
<path d="M115.419 57.7508H103.113V20.9219H115.275V23.8164H106.441V37.5596H114.485V40.5012H106.441V54.8563H115.419V57.7508Z" fill="white"/>
<path d="M139.035 57.7508H135.539L128.572 38.0303L129.027 37.3714H134.965V23.8164H126.418V57.7508H123.09V20.9219H135.635C136.417 20.9219 137.055 21.165 137.55 21.6514C138.045 22.1377 138.292 22.7653 138.292 23.534V37.5126C138.292 39.2854 137.079 40.1718 134.653 40.1718C134.414 40.1718 134.063 40.1639 133.6 40.1482C133.137 40.1169 132.802 40.1012 132.594 40.1012C134.749 45.9687 136.896 51.8519 139.035 57.7508Z" fill="white"/>
<path d="M158.772 57.7508H146.466V20.9219H158.628V23.8164H149.794V37.5596H157.838V40.5012H149.794V54.8563H158.772V57.7508Z" fill="white"/>
</svg>
