<svg width="184" height="80" viewBox="0 0 184 80" fill="none" xmlns="http://www.w3.org/2000/svg">
<path d="M38.5 28.0693L35.5 38.4107C35.5 38.4107 18.862 31.8852 17.5 40.3805C16 49.7367 42.5 45.7992 41 64.0181C38.8443 90.2006 0 76.3294 0 76.3294L3 64.5106C3 64.5106 21.8031 73.1428 25 65.4962C28.5 57.1245 1.5 60.079 1.5 42.8428C1.5 17.2372 38.5 28.0693 38.5 28.0693Z" fill="#222222"/>
<path d="M55.7122 16.0485L69.2251 12.1846C69.8639 12.002 70.5 12.4816 70.5 13.1461V25.6087H81C81.5523 25.6087 82 26.0564 82 26.6087V37.4124C82 37.9647 81.5523 38.4124 81 38.4124H70.5V58.1104C70.8498 65.3659 73.5539 67.3688 80.8638 66.616C81.4647 66.5541 82 67.0182 82 67.6223V77.5472C82 77.9934 81.7095 78.3827 81.2759 78.4882C76.9303 79.5454 54.4983 84.0337 54.5 64.0198C54.5006 56.3363 54.5856 46.879 54.6853 38.4124H48C47.4477 38.4124 47 37.9647 47 37.4124V26.6087C47 26.0564 47.4477 25.6087 48 25.6087H54.8543C54.9147 21.4564 54.9652 18.343 54.9876 16.9921C54.9949 16.5521 55.2891 16.1695 55.7122 16.0485Z" fill="#222222"/>
<path d="M92 0.999998C92 0.447713 92.4477 0 93 0H108C108.552 0 109 0.447715 109 1V48.7218L123.703 26.5473C123.889 26.2679 124.202 26.0999 124.537 26.0999H142.168C143.047 26.0999 143.498 27.1526 142.892 27.7893L124.77 46.8302L146.889 78.2007C147.356 78.8632 146.882 79.777 146.071 79.777H127.57C127.217 79.777 126.89 79.5906 126.71 79.2866L114.116 58.0236L109 63.3989V78.777C109 79.3293 108.552 79.777 108 79.777H93C92.4477 79.777 92 79.3293 92 78.777V0.999998Z" fill="#222222"/>
<path d="M164.274 79.1631C164.76 79.8338 165.703 79.9912 166.381 79.5145C166.843 79.1895 167.062 78.6535 167 78.1327V64.5342C167 63.7057 166.328 63.0342 165.5 63.0342C164.672 63.0342 164 63.7057 164 64.5342V73.677L156.727 63.6474C156.24 62.9766 155.297 62.8193 154.619 63.2959C154.158 63.6207 153.939 64.156 154 64.6763V78.2775C154 79.1059 154.672 79.7775 155.5 79.7775C156.328 79.7775 157 79.1059 157 78.2775V69.1332L164.274 79.1631Z" fill="#222222"/>
<path d="M178.004 78.2973V72.3613L182.746 65.3899C183.211 64.7055 183.028 63.7808 182.335 63.3245C181.643 62.8682 180.704 63.0531 180.239 63.7376L176.494 69.2429L172.683 63.7303C172.212 63.0493 171.273 62.8713 170.584 63.3328C169.895 63.7942 169.718 64.7203 170.189 65.4013L175.004 72.366V78.2973C175.004 79.1258 175.675 79.7973 176.504 79.7973C177.332 79.7973 178.004 79.1258 178.004 78.2973Z" fill="#222222"/>
</svg>
