<svg width="238" height="80" viewBox="0 0 238 80" fill="none" xmlns="http://www.w3.org/2000/svg">
<path d="M211.761 44.5759V36.2791H238V69.0427C232.175 74.1576 225.298 77.0789 217.846 78.8165C208.984 80.9884 200.491 80.0218 191.813 77.1331C179.067 72.8653 167.266 58.4111 166.864 42.3822C166.441 27.7651 171.453 15.7869 183.526 7.34891C192.029 1.34288 202.529 -1.1218 212.813 0.474751C220.677 1.56072 227.879 3.92813 233.986 9.16249C234.682 9.73814 235.422 10.2574 236.199 10.7154C233.618 13.4521 231.568 15.1896 229.257 17.6439C223.085 11.6494 212.336 8.54347 206.663 8.63034C202.45 9.34923 198.353 10.6313 194.481 12.4421C183.97 17.2312 177.842 25.4737 177.332 37.213C177.005 40.9908 177.261 44.7965 178.091 48.4962C181.107 59.3559 188.32 66.2409 199.221 69.6183C208.42 72.4635 216.631 69.7703 224.788 66.2518C225.587 65.8822 226.299 65.3461 226.875 64.6795C227.451 64.0128 227.879 63.2309 228.129 62.3858C228.981 56.477 228.945 50.4738 228.02 44.5759H211.761Z" fill="#222222"/>
<path d="M104 0.0220687C111.013 0.0220687 117.729 0.136416 124.424 0.0220687C129.727 -0.160295 135.011 0.789119 139.95 2.81216C147.969 6.07533 154.695 12.0715 159.037 19.8271C164.516 29.3523 164.79 39.5978 163.048 49.6947C161.546 58.3508 156.703 65.7034 149.833 71.3522C142.163 77.687 133.398 80.0998 123.876 79.9969C118.945 79.9969 114.015 79.9969 109.084 79.9969C107.484 79.9969 105.885 79.7911 104 79.6653V0.0220687ZM114.957 70.3802C129.42 73.399 142.054 69.2367 148.223 59.4943C156.78 45.9327 155.98 32.9314 147.357 20.1587C140.849 10.5078 126.429 9.11273 114.924 10.302C115.439 14.8301 114.343 62.8562 114.924 70.3802H114.957Z" fill="#222222"/>
<path d="M70.1545 80L36 0.181436H46.9564C50.5287 8.92417 54.0792 18.1318 58.0544 27.1467C62.0297 36.1616 65.0901 44.9497 70.5901 55.1552L91.5228 0H102C91.3921 26.6478 80.9693 52.8193 70.1545 80Z" fill="#222222"/>
<path d="M10.8615 0.106488C18.6543 18.3906 26.2059 36.0955 33.8013 53.7891C33.889 54.0048 34.7987 56.7417 35.3796 54.2433L40.9912 41.4445C43.5669 46.5209 44.1148 48.1789 46 52.0742L34.8974 80C33.3958 77.2176 32.3546 75.605 31.6093 73.8447C25.9209 60.3645 20.386 46.8274 14.6319 33.3813C9.99569 22.5471 5.11842 11.8037 0 0.265462C3.61372 -0.0235441 7.24139 -0.0766284 10.8615 0.106488Z" fill="#222222"/>
</svg>
