<svg width="185" height="80" viewBox="0 0 185 80" fill="none" xmlns="http://www.w3.org/2000/svg">
<path d="M83.4903 0L74.1301 80H47.8017C45.3991 67.7126 43.2801 53.7451 41.4448 38.0976C40.6106 44.7848 38.6585 58.7523 35.5885 80H9.41017L0 0H20.4721L22.6245 27.9185L24.8268 54.8487C25.5943 40.9141 27.5298 22.6313 30.6331 0H52.5568C52.8571 2.33889 53.6246 11.1344 54.8593 26.3867L57.1618 56.7758C58.3297 37.4387 60.2818 18.5135 63.0181 0H83.4903Z" fill="#222222"/>
<path d="M87.6948 0H108.918C114.657 0 119.062 0.444719 122.132 1.33416C125.235 2.22359 127.555 3.50834 129.09 5.18839C130.658 6.86844 131.709 8.91085 132.243 11.3156C132.81 13.6875 133.094 17.377 133.094 22.3842V29.3515C133.094 34.4575 132.56 38.1799 131.492 40.5188C130.424 42.8577 128.456 44.6531 125.586 45.9049C122.749 47.1567 119.029 47.7826 114.424 47.7826H108.768V80H87.6948V0ZM108.768 13.6875V34.0457C109.368 34.0787 109.885 34.0951 110.319 34.0951C112.255 34.0951 113.589 33.6339 114.324 32.7116C115.091 31.7562 115.475 29.7962 115.475 26.8314V20.2594C115.475 17.5252 115.041 15.7463 114.173 14.9228C113.306 14.0992 111.504 13.6875 108.768 13.6875Z" fill="#222222"/>
<path d="M172.937 0L185 80H163.427L162.376 65.6208H154.817L153.566 80H131.742L142.454 0H172.937ZM161.775 51.4392C160.707 42.3801 159.639 31.1962 158.571 17.8876C156.436 33.1727 155.101 44.3566 154.567 51.4392H161.775Z" fill="#222222"/>
</svg>
