<svg width="12" height="12" viewBox="0 0 12 12" fill="none" xmlns="http://www.w3.org/2000/svg">
<g clip-path="url(#clip0)">
<path d="M11.8907 9.64067L8.25017 6.00017L11.8907 2.35967C11.93 2.32029 11.9582 2.27454 11.9765 2.22579C12.0264 2.09229 11.9979 1.93667 11.8907 1.82942L10.1709 0.109667C10.0637 0.0024169 9.90767 -0.0257081 9.77454 0.0237919C9.72579 0.0417919 9.68004 0.0702919 9.64067 0.109292L6.00017 3.74979L2.35967 0.109292C2.32029 0.0702919 2.27454 0.0417919 2.22579 0.0237919C2.09229 -0.0260831 1.93667 0.0024169 1.82942 0.109667L0.109667 1.82942C0.00241691 1.93667 -0.0257081 2.09267 0.0237919 2.22579C0.0421669 2.27454 0.0702919 2.32029 0.109667 2.35967L3.75017 6.00017L0.109667 9.64067C0.0706669 9.68004 0.0421669 9.72579 0.0237919 9.77454C-0.0260831 9.90767 0.00241691 10.0637 0.109667 10.1709L1.82942 11.8907C1.93667 11.9979 2.09267 12.026 2.22579 11.9765C2.27454 11.9582 2.32029 11.93 2.35967 11.8907L6.00017 8.25017L9.64067 11.8907C9.68004 11.93 9.72579 11.9582 9.77454 11.9765C9.90804 12.0264 10.0637 11.9979 10.1709 11.8907L11.8907 10.1709C11.9979 10.0637 12.0264 9.90767 11.9765 9.77454C11.9582 9.72579 11.93 9.68004 11.8907 9.64067Z" fill="#ABABAB"/>
</g>
<defs>
<clipPath id="clip0">
<rect width="12" height="12" fill="white"/>
</clipPath>
</defs>
</svg>
