<svg width="24" height="26" viewBox="0 0 24 26" fill="none" xmlns="http://www.w3.org/2000/svg">
<path d="M18.8557 12.7691H20.6693C21.0793 12.7691 21.4129 12.4356 21.4129 12.0256V10.212C21.4129 9.80195 21.0793 9.46837 20.6693 9.46837H18.8557C18.4457 9.46837 18.1122 9.80195 18.1122 10.212V12.0256C18.1122 12.4356 18.4457 12.7691 18.8557 12.7691ZM18.8739 10.2301H20.6512V12.0074H18.8739V10.2301ZM18.8557 17.5934H20.6693C21.0793 17.5934 21.4129 17.2598 21.4129 16.8498V15.0362C21.4129 14.6262 21.0793 14.2926 20.6693 14.2926H18.8557C18.4457 14.2926 18.1122 14.6262 18.1122 15.0362V16.8498C18.1122 17.2598 18.4457 17.5934 18.8557 17.5934ZM18.8739 15.0543H20.6512V16.8316H18.8739V15.0543ZM13.6803 12.7691H15.4939C15.9039 12.7691 16.2375 12.4356 16.2375 12.0256V10.212C16.2375 9.80195 15.9039 9.46837 15.4939 9.46837H13.6803C13.2703 9.46837 12.9367 9.80195 12.9367 10.212V12.0256C12.9367 12.4356 13.2703 12.7691 13.6803 12.7691ZM13.6984 10.2301H15.4758V12.0074H13.6984V10.2301ZM5.14308 18.8906H3.32948C2.91947 18.8906 2.58589 19.2242 2.58589 19.6342V21.4478C2.58589 21.8578 2.91947 22.1914 3.32948 22.1914H5.14308C5.55309 22.1914 5.88667 21.8578 5.88667 21.4478V19.6342C5.88667 19.2242 5.55309 18.8906 5.14308 18.8906ZM5.12495 21.4297H3.34761V19.6523H5.12495V21.4297ZM5.14308 9.46837H3.32948C2.91947 9.46837 2.58589 9.80195 2.58589 10.212V12.0256C2.58589 12.4356 2.91947 12.7691 3.32948 12.7691H5.14308C5.55309 12.7691 5.88667 12.4356 5.88667 12.0256V10.212C5.88667 9.8019 5.55309 9.46837 5.14308 9.46837ZM5.12495 12.0074H3.34761V10.2301H5.12495V12.0074ZM13.6803 17.4803H15.4939C15.9039 17.4803 16.2375 17.1467 16.2375 16.7367V14.9231C16.2375 14.5131 15.9039 14.1795 15.4939 14.1795H13.6803C13.2703 14.1795 12.9367 14.5131 12.9367 14.9231V16.7367C12.9367 17.1467 13.2703 17.4803 13.6803 17.4803ZM13.6984 14.9412H15.4758V16.7186H13.6984V14.9412ZM21.7912 1.74048H20.1628V1.15817C20.1628 0.519543 19.6433 0 19.0047 0H18.8298C18.1912 0 17.6717 0.519543 17.6717 1.15817V1.74048H6.32714V1.15817C6.32714 0.519543 5.8076 0 5.16898 0H4.99409C4.35546 0 3.83592 0.519543 3.83592 1.15817V1.74048H2.20762C1.15619 1.74048 0.300781 2.59589 0.300781 3.64731V24.0957C0.300781 25.1458 1.15502 26 2.20508 26H21.7938C22.8439 26 23.6981 25.1458 23.6981 24.0957V3.64731C23.6981 2.59589 22.8427 1.74048 21.7912 1.74048ZM18.4334 1.15817C18.4334 0.939555 18.6112 0.761719 18.8298 0.761719H19.0047C19.2233 0.761719 19.4012 0.939555 19.4012 1.15817V1.74048H18.4334V1.15817ZM4.59769 1.15817C4.59769 0.939555 4.77552 0.761719 4.99414 0.761719H5.16903C5.38764 0.761719 5.56548 0.939555 5.56548 1.15817V1.74048H4.59774L4.59769 1.15817ZM22.9364 24.0957C22.9364 24.7257 22.4238 25.2383 21.7938 25.2383H2.20503C1.57498 25.2383 1.06245 24.7257 1.06245 24.0957V24.0933C1.38156 24.3338 1.77821 24.4766 2.20762 24.4766H17.6493C18.1587 24.4766 18.6375 24.2782 18.9977 23.918L22.9364 19.9793V24.0957ZM18.609 23.2294C18.6389 23.1062 18.6552 22.9777 18.6552 22.8454V20.3031C18.6552 19.8237 19.0452 19.4336 19.5246 19.4336H22.0669C22.1992 19.4336 22.3277 19.4174 22.451 19.3875L18.609 23.2294ZM22.9364 7.18321H6.708C6.49767 7.18321 6.32714 7.35373 6.32714 7.56407C6.32714 7.77441 6.49767 7.94493 6.708 7.94493H22.9364V17.8025C22.9364 18.2819 22.5463 18.672 22.0669 18.672H19.5246C18.6252 18.672 17.8934 19.4037 17.8934 20.3031V22.8454C17.8934 23.3248 17.5034 23.7149 17.024 23.7149H2.20762C1.5762 23.7149 1.0625 23.2012 1.0625 22.5697V7.94493H5.18457C5.3949 7.94493 5.56543 7.77441 5.56543 7.56407C5.56543 7.35373 5.3949 7.18321 5.18457 7.18321H1.06245V3.64731C1.06245 3.0159 1.57615 2.5022 2.20757 2.5022H3.83592V3.62202C3.83592 4.26065 4.35546 4.78019 4.99409 4.78019C5.20442 4.78019 5.37495 4.60967 5.37495 4.39933C5.37495 4.189 5.20442 4.01847 4.99409 4.01847C4.77547 4.01847 4.59764 3.84064 4.59764 3.62202V2.5022H17.6717V3.62202C17.6717 4.26065 18.1912 4.78019 18.8298 4.78019C19.0402 4.78019 19.2107 4.60967 19.2107 4.39933C19.2107 4.189 19.0402 4.01847 18.8298 4.01847C18.6112 4.01847 18.4334 3.84064 18.4334 3.62202V2.5022H21.7913C22.4227 2.5022 22.9364 3.0159 22.9364 3.64731V7.18321ZM5.14308 14.1795H3.32948C2.91947 14.1795 2.58589 14.5131 2.58589 14.9231V16.7367C2.58589 17.1467 2.91947 17.4803 3.32948 17.4803H5.14308C5.55309 17.4803 5.88667 17.1467 5.88667 16.7367V14.9231C5.88667 14.513 5.55309 14.1795 5.14308 14.1795ZM5.12495 16.7186H3.34761V14.9412H5.12495V16.7186ZM8.5049 12.7691H10.3185C10.7285 12.7691 11.0621 12.4356 11.0621 12.0256V10.212C11.0621 9.80195 10.7285 9.46837 10.3185 9.46837H8.5049C8.09489 9.46837 7.76131 9.80195 7.76131 10.212V12.0256C7.76131 12.4356 8.09489 12.7691 8.5049 12.7691ZM8.52303 10.2301H10.3004V12.0074H8.52303V10.2301ZM13.698 21.4297C13.6885 21.2277 13.5218 21.067 13.3175 21.067C13.1072 21.067 12.9367 21.2375 12.9367 21.4478C12.9367 21.8578 13.2703 22.1914 13.6803 22.1914H15.4939C15.9039 22.1914 16.2375 21.8578 16.2375 21.4478V19.6342C16.2375 19.2242 15.9039 18.8906 15.4939 18.8906H13.6803C13.2703 18.8906 12.9367 19.2242 12.9367 19.6342V20.1573C12.9367 20.3676 13.1072 20.5381 13.3175 20.5381C13.5279 20.5381 13.6984 20.3676 13.6984 20.1573V19.6523H15.4757V21.4297H13.698ZM8.5049 17.4803H10.3185C10.7285 17.4803 11.0621 17.1467 11.0621 16.7367V14.9231C11.0621 14.5131 10.7285 14.1795 10.3185 14.1795H8.5049C8.09489 14.1795 7.76131 14.5131 7.76131 14.9231V16.7367C7.76131 17.1467 8.09489 17.4803 8.5049 17.4803ZM8.52303 14.9412H10.3004V16.7186H8.52303V14.9412ZM8.5049 22.1914H10.3185C10.7285 22.1914 11.0621 21.8578 11.0621 21.4478V19.6342C11.0621 19.2242 10.7285 18.8906 10.3185 18.8906H8.5049C8.09489 18.8906 7.76131 19.2242 7.76131 19.6342V21.4478C7.76131 21.8578 8.09489 22.1914 8.5049 22.1914ZM8.52303 19.6523H10.3004V21.4297H8.52303V19.6523Z" fill="#777777" stroke="#585858" stroke-width="0.3"/>
</svg>
