<svg width="20" height="20" viewBox="0 0 20 20" fill="none" xmlns="http://www.w3.org/2000/svg">
<path d="M19.7101 18.29L18.2901 19.71C18.1027 19.8962 17.8492 20.0008 17.5851 20.0008C17.3209 20.0008 17.0674 19.8962 16.8801 19.71L5.00006 7.85C4.67487 7.94421 4.33858 7.99465 4.00006 8C3.36336 7.99955 2.73597 7.84711 2.17005 7.55536C1.60413 7.26362 1.11602 6.84099 0.746322 6.32263C0.37662 5.80426 0.135999 5.20513 0.0444667 4.57505C-0.047066 3.94496 0.0131336 3.30213 0.22006 2.7L2.76006 5.24L3.29006 4.71L4.71006 3.29L5.24006 2.76L2.70006 0.22C3.30219 0.0130733 3.94503 -0.0471263 4.57511 0.0444064C5.20519 0.135939 5.80432 0.376559 6.32269 0.746262C6.84105 1.11596 7.26368 1.60407 7.55542 2.16999C7.84717 2.73591 7.99961 3.3633 8.00006 4C7.99471 4.33852 7.94427 4.67481 7.85006 5L19.7101 16.88C19.8963 17.0674 20.0009 17.3208 20.0009 17.585C20.0009 17.8492 19.8963 18.1026 19.7101 18.29ZM0.29006 16.88C0.103809 17.0674 -0.000732422 17.3208 -0.000732422 17.585C-0.000732422 17.8492 0.103809 18.1026 0.29006 18.29L1.71006 19.71C1.89742 19.8962 2.15087 20.0008 2.41506 20.0008C2.67925 20.0008 2.9327 19.8962 3.12006 19.71L8.59006 14.25L5.76006 11.42L0.29006 16.88ZM18.0001 0L14.0001 2V4L11.8301 6.17L13.8301 8.17L16.0001 6H18.0001L20.0001 2L18.0001 0Z" fill="black"/>
</svg>
