<svg width="18" height="19" viewBox="0 0 18 19" fill="none" xmlns="http://www.w3.org/2000/svg">
<path d="M17.1717 3.73503C17.1647 3.72799 15.7397 5.13659 12.9038 7.96783L10.9139 5.97799L15.1538 1.73815C12.9225 0.395186 10.0561 0.739717 8.19751 2.59831C7.48706 3.30836 6.97579 4.19274 6.71498 5.16274C6.45417 6.13274 6.453 7.15427 6.71157 8.12487L6.75376 8.2819L0.109229 14.9241C-0.036084 15.0694 -0.036084 15.3084 0.109229 15.4538L3.42329 18.7678C3.5686 18.9131 3.80767 18.9131 3.95298 18.7678L10.5928 12.128L10.7499 12.1702C12.7116 12.6928 14.8186 12.1491 16.2811 10.6866C18.142 8.82799 18.4866 5.96159 17.1717 3.73503Z" fill="black"/>
</svg>
