<svg width="40" height="40" viewBox="0 0 40 40" fill="none" xmlns="http://www.w3.org/2000/svg">
<path d="M39.4008 18.6404L18.8689 0.219101C18.7113 0.0786513 18.5102 0 18.2983 0H13.4887C13.0865 0 12.9017 0.516854 13.2061 0.786517L32.238 17.8652H0.434767C0.195645 17.8652 0 18.0674 0 18.3146V21.6854C0 21.9326 0.195645 22.1348 0.434767 22.1348H32.2326L13.2006 39.2135C12.8963 39.4888 13.0811 40 13.4832 40H18.4559C18.5591 40 18.6624 39.9607 18.7385 39.8876L39.4008 21.3596C39.5889 21.1904 39.7398 20.9815 39.8431 20.747C39.9465 20.5125 40 20.2577 40 20C40 19.7423 39.9465 19.4875 39.8431 19.253C39.7398 19.0185 39.5889 18.8096 39.4008 18.6404Z" fill="#CDCDCD"/>
</svg>
