<svg width="39" height="41" viewBox="0 0 39 41" fill="none" xmlns="http://www.w3.org/2000/svg">
<path d="M36.2143 0H2.77701C1.24487 0 0 1.32701 0 2.95603V38.044C0 39.673 1.24487 41 2.77701 41H36.2143C37.7464 41 39 39.673 39 38.044V2.95603C39 1.32701 37.7464 0 36.2143 0ZM11.7871 35.1429H6.0067V15.5763H11.7958V35.1429H11.7871ZM8.89688 12.904C7.04263 12.904 5.54531 11.3208 5.54531 9.38058C5.54531 7.4404 7.04263 5.85714 8.89688 5.85714C10.7424 5.85714 12.2484 7.4404 12.2484 9.38058C12.2484 11.3299 10.7511 12.904 8.89688 12.904ZM33.4547 35.1429H27.6743V25.625C27.6743 23.3554 27.6308 20.4359 24.671 20.4359C21.6589 20.4359 21.1975 22.9069 21.1975 25.4603V35.1429H15.4172V15.5763H20.9625V18.2487H21.0408C21.8156 16.7112 23.7047 15.0913 26.5165 15.0913C32.3665 15.0913 33.4547 19.1455 33.4547 24.417V35.1429Z" fill="white"/>
</svg>
