<svg aria-hidden="true" style="position: absolute; width: 0; height: 0; overflow: hidden;" version="1.1" xmlns="http://www.w3.org/2000/svg" xmlns:xlink="http://www.w3.org/1999/xlink">
  <defs>
    <symbol id="burger-icon" viewBox="0 0 36 32">
      <path d="M0 0h36.364v6.364h-36.364v-6.364z"></path>
      <path d="M17.455 13.091h18.909v5.818h-18.909v-5.818z"></path>
      <path d="M0 25.455h36.364v6.364h-36.364v-6.364z"></path>
    </symbol>
    <symbol id="cancel" viewBox="0 0 640 640">
      <path d="M320 266.753l-266.273-266.273-53.247 53.247 266.273 266.273-266.273 266.273 53.247 53.247 266.273-266.273 266.273 266.273 53.247-53.247-266.273-266.273 266.273-266.273-53.247-53.247-266.273 266.273z"></path>
    </symbol>
    <symbol id="close-icon" viewBox="0 0 36 32">
      <path d="M5.016 0l31.347 27.586-5.016 4.414-31.347-27.586 5.016-4.414z"></path>
      <path d="M0.001 27.586l31.347-27.586 5.016 4.414-31.347 27.586-5.016-4.414z"></path>
    </symbol>
    <symbol id="logo" viewBox="0 0 41 32">
      <path d="M4.041 3.311h-3.304v19.053h7.448v-3.311h-4.144v-15.742z"></path>
      <path d="M15.416 0h-11.376v3.311h9.534l3.765 6.215-3.765 6.215h-5.39v3.311h7.232l5.796-9.527-5.796-9.527z"></path>
      <path d="M8.158 26.029c0.244-0.054 0.488-0.081 0.786-0.109 0.271-0.027 0.569-0.027 0.84-0.027 0.298 0 0.596 0.027 0.867 0.081 0.298 0.054 0.569 0.136 0.785 0.299 0.244 0.136 0.433 0.353 0.569 0.597s0.217 0.597 0.217 1.004c0 0.353-0.054 0.678-0.19 0.923s-0.298 0.461-0.515 0.624c-0.217 0.163-0.46 0.299-0.731 0.353-0.271 0.081-0.542 0.109-0.84 0.109h-0.135c-0.054 0-0.135 0-0.19 0s-0.135 0-0.19 0c-0.054 0-0.108 0-0.135-0.027v2.036h-1.165l0.027-5.863zM9.891 26.87c-0.108 0-0.217 0-0.325 0s-0.19 0.027-0.244 0.027v1.9c0.027 0 0.054 0 0.108 0.027 0.054 0 0.081 0 0.135 0s0.108 0 0.135 0c0.054 0 0.081 0 0.108 0 0.163 0 0.298-0.027 0.46-0.054 0.135-0.027 0.271-0.081 0.406-0.163 0.108-0.081 0.217-0.19 0.271-0.326 0.081-0.136 0.108-0.299 0.108-0.543 0-0.19-0.027-0.326-0.108-0.461-0.054-0.109-0.162-0.217-0.271-0.299s-0.244-0.136-0.379-0.163c-0.135 0.081-0.271 0.054-0.406 0.054z"></path>
      <path d="M12.573 29.747c0-0.353 0.054-0.679 0.163-0.95s0.271-0.516 0.46-0.706c0.19-0.19 0.433-0.326 0.704-0.434s0.569-0.136 0.921-0.136c0.352 0 0.677 0.054 0.948 0.163s0.515 0.244 0.704 0.461c0.19 0.19 0.325 0.434 0.433 0.706s0.135 0.57 0.135 0.923c0 0.353-0.054 0.678-0.163 0.95s-0.271 0.516-0.46 0.706-0.433 0.326-0.704 0.434c-0.271 0.108-0.569 0.136-0.921 0.136s-0.677-0.054-0.948-0.163c-0.271-0.109-0.515-0.244-0.704-0.461-0.19-0.19-0.325-0.434-0.433-0.706-0.081-0.271-0.135-0.597-0.135-0.923zM13.71 29.747c0 0.19 0.027 0.353 0.081 0.516s0.135 0.299 0.217 0.407c0.108 0.109 0.217 0.217 0.352 0.271s0.298 0.109 0.46 0.109c0.325 0 0.596-0.109 0.785-0.299 0.217-0.217 0.298-0.543 0.298-0.977 0-0.38-0.108-0.706-0.298-0.95s-0.46-0.353-0.813-0.353c-0.163 0-0.298 0.027-0.433 0.081s-0.244 0.136-0.352 0.244-0.163 0.244-0.244 0.407c-0.027 0.136-0.054 0.326-0.054 0.543z"></path>
      <path d="M20.156 28.661l0.65 1.846h0.027l0.081-0.733 0.352-2.117 0.975-0.027-0.84 4.234h-1.11l-0.46-1.683h-0.054l-0.515 1.683h-1.138l-0.894-4.207h1.083l0.433 2.334 0.054 0.516h0.054l0.623-1.846h0.677z"></path>
      <path d="M26.576 31.403c-0.081 0.054-0.163 0.136-0.271 0.19s-0.244 0.136-0.406 0.19c-0.163 0.054-0.325 0.109-0.515 0.136s-0.379 0.054-0.596 0.054c-0.352 0-0.677-0.054-0.975-0.163-0.271-0.109-0.515-0.244-0.731-0.434-0.19-0.19-0.352-0.434-0.46-0.706s-0.163-0.57-0.163-0.923c0-0.38 0.054-0.706 0.19-0.977 0.108-0.271 0.271-0.516 0.488-0.706s0.433-0.326 0.731-0.407c0.271-0.081 0.569-0.136 0.894-0.136 0.217 0 0.433 0.027 0.65 0.081s0.433 0.163 0.623 0.299c0.19 0.136 0.352 0.326 0.46 0.543s0.19 0.516 0.19 0.868c0 0.244-0.027 0.516-0.081 0.787h-3.034c0 0.19 0.054 0.326 0.108 0.461 0.081 0.136 0.163 0.217 0.271 0.299s0.244 0.136 0.406 0.163c0.135 0.027 0.298 0.054 0.488 0.054 0.325 0 0.623-0.027 0.84-0.109s0.379-0.163 0.515-0.299l0.379 0.733zM24.761 28.39c-0.135 0-0.271 0.027-0.406 0.054s-0.244 0.108-0.352 0.163c-0.108 0.081-0.19 0.163-0.244 0.299-0.054 0.109-0.108 0.244-0.108 0.38h2.058c0-0.271-0.081-0.516-0.244-0.679-0.162-0.136-0.406-0.217-0.704-0.217z"></path>
      <path d="M27.199 30.915h1.029v-2.361h-1.029v-0.923h1.896l0.135 0.543h0.027c0.163-0.19 0.325-0.353 0.542-0.461 0.19-0.136 0.433-0.19 0.704-0.19 0.325 0 0.596 0.136 0.785 0.38s0.298 0.651 0.298 1.249h-0.975c0-0.19-0.027-0.353-0.081-0.434s-0.163-0.136-0.271-0.136c-0.217 0-0.406 0.054-0.542 0.163s-0.244 0.244-0.352 0.38v1.791h1.815v0.923h-3.954l-0.027-0.923z"></path>
      <path d="M31.586 25.947h1.788v3.366h0.244l1.381-1.683h1.273l-1.679 1.927 1.083 1.357h0.785v0.923h-1.354l-1.436-1.737h-0.298v1.737l-1.111 0.027v-4.994h-0.677v-0.923z"></path>
      <path d="M36.407 25.947h1.706v2.144h0.027c0.135-0.19 0.325-0.326 0.542-0.434s0.488-0.163 0.785-0.163c0.217 0 0.406 0.027 0.596 0.081s0.325 0.136 0.46 0.271 0.217 0.299 0.298 0.516c0.081 0.217 0.108 0.488 0.108 0.814v2.633h-1.083v-2.388c0-0.353-0.081-0.597-0.217-0.733-0.135-0.163-0.325-0.217-0.569-0.217-0.217 0-0.406 0.054-0.569 0.19s-0.298 0.299-0.379 0.489v2.687h-1.083v-4.967h-0.596l-0.027-0.923z"></path>
    </symbol>
    <symbol id="right-arrow" viewBox="0 0 32 32">
      <path d="M27.156 16.387l-11.806-10.247c-0.091-0.078-0.206-0.122-0.328-0.122h-2.766c-0.231 0-0.338 0.288-0.162 0.438l10.944 9.5h-18.288c-0.138 0-0.25 0.112-0.25 0.25v1.875c0 0.138 0.112 0.25 0.25 0.25h18.284l-10.944 9.5c-0.175 0.153-0.069 0.438 0.162 0.438h2.859c0.059 0 0.119-0.022 0.162-0.063l11.881-10.306c0.108-0.094 0.195-0.21 0.254-0.341s0.090-0.272 0.090-0.416c0-0.143-0.031-0.285-0.090-0.416s-0.146-0.247-0.254-0.341z"></path>
    </symbol>
    <symbol id="facebook" viewBox="0 0 32 32">
      <path d="M4.624 3.2h22.768c0.784 0 1.408 0.624 1.408 1.408v22.784c0 0.768-0.624 1.408-1.408 1.408h-6.528v-9.92h3.328l0.496-3.856h-3.824v-2.464c0-1.12 0.32-1.888 1.92-1.888h2.048v-3.456c-0.352-0.048-1.568-0.144-2.976-0.144-2.96 0-4.976 1.792-4.976 5.104v2.848h-3.344v3.856h3.344v9.92h-12.256c-0.375 0-0.735-0.148-1.001-0.411s-0.418-0.622-0.423-0.997v-22.784c0-0.784 0.64-1.408 1.424-1.408z"></path>
    </symbol>
    <symbol id="instagram" viewBox="0 0 32 32">
      <path d="M16 11.835c-2.294 0-4.166 1.872-4.166 4.166s1.872 4.166 4.166 4.166c2.294 0 4.166-1.872 4.166-4.166s-1.872-4.166-4.166-4.166zM28.494 16c0-1.725 0.016-3.434-0.081-5.156-0.097-2-0.553-3.775-2.016-5.237-1.466-1.466-3.238-1.919-5.238-2.016-1.725-0.097-3.434-0.081-5.156-0.081-1.725 0-3.434-0.016-5.156 0.081-2 0.097-3.775 0.553-5.237 2.016-1.466 1.466-1.919 3.238-2.016 5.237-0.097 1.725-0.081 3.434-0.081 5.156s-0.016 3.434 0.081 5.156c0.097 2 0.553 3.775 2.016 5.238 1.466 1.466 3.238 1.919 5.237 2.016 1.725 0.097 3.434 0.081 5.156 0.081 1.725 0 3.434 0.016 5.156-0.081 2-0.097 3.775-0.553 5.238-2.016 1.466-1.466 1.919-3.238 2.016-5.238 0.1-1.722 0.081-3.431 0.081-5.156zM16 22.41c-3.547 0-6.409-2.863-6.409-6.409s2.863-6.409 6.409-6.409c3.547 0 6.409 2.862 6.409 6.409s-2.863 6.409-6.409 6.409zM22.672 10.825c-0.828 0-1.497-0.669-1.497-1.497s0.669-1.497 1.497-1.497 1.497 0.669 1.497 1.497c0 0.197-0.038 0.391-0.113 0.573s-0.185 0.347-0.325 0.486c-0.139 0.139-0.304 0.249-0.486 0.325s-0.376 0.114-0.573 0.113z"></path>
    </symbol>

    <symbol id="linkedin" viewBox="0 0 32 32">
      <path d="M30.72 0h-29.44c-0.708 0-1.28 0.572-1.28 1.28v29.44c0 0.708 0.572 1.28 1.28 1.28h29.44c0.708 0 1.28-0.572 1.28-1.28v-29.44c0-0.708-0.572-1.28-1.28-1.28zM9.492 27.268h-4.748v-15.272h4.748v15.272zM7.12 9.908c-0.544 0-1.076-0.161-1.529-0.464s-0.805-0.732-1.014-1.235c-0.208-0.503-0.263-1.056-0.157-1.59s0.368-1.024 0.753-1.409c0.385-0.385 0.875-0.647 1.409-0.753s1.087-0.052 1.59 0.157c0.503 0.208 0.933 0.561 1.235 1.014s0.464 0.985 0.464 1.529c-0.004 1.52-1.236 2.752-2.752 2.752zM27.268 27.268h-4.744v-7.428c0-1.772-0.032-4.048-2.468-4.048-2.468 0-2.848 1.928-2.848 3.92v7.556h-4.74v-15.272h4.552v2.088h0.064c0.632-1.2 2.18-2.468 4.492-2.468 4.808 0 5.692 3.164 5.692 7.276v8.376z"></path>
    </symbol>

    <symbol id="email" viewBox="0 0 31 24" >
      <path d="M27.9 0H3.1C1.395 0 0.0155 1.35 0.0155 3L0 21C0 22.65 1.395 24 3.1 24H27.9C29.605 24 31 22.65 31 21V3C31 1.35 29.605 0 27.9 0ZM27.28 6.375L16.3215 13.005C15.8255 13.305 15.1745 13.305 14.6785 13.005L3.72 6.375C3.56458 6.29057 3.42847 6.17649 3.31993 6.03968C3.21138 5.90287 3.13265 5.74617 3.08849 5.57906C3.04434 5.41195 3.03568 5.2379 3.06304 5.06746C3.09041 4.89702 3.15322 4.73372 3.24769 4.58745C3.34215 4.44118 3.4663 4.31498 3.61263 4.21649C3.75895 4.118 3.9244 4.04927 4.09897 4.01445C4.27354 3.97963 4.45359 3.97945 4.62823 4.01392C4.80287 4.04839 4.96847 4.1168 5.115 4.215L15.5 10.5L25.885 4.215C26.0315 4.1168 26.1971 4.04839 26.3718 4.01392C26.5464 3.97945 26.7265 3.97963 26.901 4.01445C27.0756 4.04927 27.2411 4.118 27.3874 4.21649C27.5337 4.31498 27.6578 4.44118 27.7523 4.58745C27.8468 4.73372 27.9096 4.89702 27.937 5.06746C27.9643 5.2379 27.9557 5.41195 27.9115 5.57906C27.8674 5.74617 27.7886 5.90287 27.6801 6.03968C27.5715 6.17649 27.4354 6.29057 27.28 6.375Z" fill="black"/>
    </symbol>

    <symbol id="up-arrow" viewBox="0 0 30 32">
      <path d="M13.847 0.479l-13.684 16.425c-0.104 0.126-0.163 0.287-0.163 0.456v3.848c0 0.322 0.384 0.47 0.584 0.226l12.687-15.226v25.443c0 0.191 0.15 0.348 0.334 0.348h2.504c0.184 0 0.334-0.156 0.334-0.348v-25.438l12.687 15.226c0.204 0.243 0.584 0.096 0.584-0.226v-3.978c0-0.083-0.029-0.165-0.083-0.226l-13.764-16.53c-0.126-0.15-0.281-0.271-0.455-0.354s-0.363-0.126-0.555-0.126c-0.191 0-0.381 0.043-0.555 0.126s-0.329 0.203-0.455 0.354z"></path>
    </symbol>

    <symbol id="right-arrow" viewBox="0 0 10 9" >
      <path d="M9.85019 4.1941L4.71722 0.0492977C4.67782 0.0176966 4.62755 0 4.57457 0H3.37216C3.27162 0 3.22543 0.116292 3.30151 0.176966L8.0595 4.01966H0.108692C0.0489113 4.01966 0 4.06517 0 4.12079V4.87921C0 4.93483 0.0489113 4.98034 0.108692 4.98034H8.05814L3.30015 8.82303C3.22407 8.88497 3.27026 9 3.3708 9H4.61397C4.63978 9 4.6656 8.99115 4.68462 8.97472L9.85019 4.8059C9.89723 4.76785 9.93494 4.72085 9.96078 4.66808C9.98663 4.61531 10 4.55799 10 4.5C10 4.44201 9.98663 4.38469 9.96078 4.33192C9.93494 4.27915 9.89723 4.23215 9.85019 4.1941V4.1941Z" fill="black"/>
    </symbol>

    <symbol viewBox="0 0 20 20" id="zoom">
      <path d="M2.8 15.8L0 13v7h7l-2.8-2.8 4.34-4.32-1.42-1.42L2.8 15.8zM17.2 4.2L20 7V0h-7l2.8 2.8-4.34 4.32 1.42 1.42L17.2 4.2zm-1.4 13L13 20h7v-7l-2.8 2.8-4.32-4.34-1.42 1.42 4.33 4.33.01-.01zM4.2 2.8L7 0H0v7l2.8-2.8 4.32 4.34 1.42-1.42L4.2 2.8z"></path>
    </symbol>

    <symbol fill="none" viewBox="0 0 19 14" id="load-more">
      <path d="M9.4.28c3.53 0 6.43 2.61 6.92 6h2.08l-3.5 4-3.5-4h2.32A4.439 4.439 0 009.4 2.83c-1.45 0-2.73.71-3.54 1.78L4.15 2.66A6.965 6.965 0 019.4.28zM9 13.72c-3.52 0-6.43-2.61-6.92-6H0l3.5-4c1.17 1.33 2.33 2.67 3.5 4H4.68A4.439 4.439 0 009 11.17c1.45 0 2.73-.71 3.54-1.78l1.71 1.95A6.949 6.949 0 019 13.72z" fill="#000"></path>
    </symbol>
    <symbol fill="none" viewBox="0 0 22 16" id="eye">
      <path d="M11 .5C6 .5 1.73 3.61 0 8c1.73 4.39 6 7.5 11 7.5s9.27-3.11 11-7.5C20.27 3.61 16 .5 11 .5zM11 13c-2.76 0-5-2.24-5-5s2.24-5 5-5 5 2.24 5 5-2.24 5-5 5zm0-8C9.34 5 8 6.34 8 8s1.34 3 3 3 3-1.34 3-3-1.34-3-3-3z" fill="#000"></path>
    </symbol>
    <symbol viewBox="0 0 14 15" id="logo-part">
      <path d="M2.216 2.221H0v12.78h4.996v-2.222h-2.78V2.221z" fill="#CDCDCD"></path>
      <path d="M9.846 0h-7.63v2.22H8.61l2.526 4.17-2.526 4.168H4.995v2.221h4.85l3.888-6.39L9.846 0z" fill="#CDCDCD"></path>
    </symbol>
    <symbol viewBox="0 0 24 24" id="arrow-prev">
      <path d="M.36 12.816l12.319 11.053a.513.513 0 00.342.131h2.886c.241 0 .352-.31.17-.472L4.656 13.281H23.74c.144 0 .261-.121.261-.27V10.99a.266.266 0 00-.26-.27H4.66L16.08.472C16.262.307 16.15 0 15.91 0h-2.983a.246.246 0 00-.17.067L.36 11.184a1.078 1.078 0 00-.266.368 1.112 1.112 0 00.266 1.264z"/>
    </symbol>
    <symbol viewBox="0 0 24 24" id="arrow-next">
      <path d="M23.64 11.184L11.321.131A.513.513 0 0010.98 0H8.093c-.241 0-.352.31-.17.472l11.42 10.247H.26a.266.266 0 00-.261.27v2.022c0 .149.117.27.26.27h19.08L7.92 23.528c-.182.165-.071.472.17.472h2.983a.246.246 0 00.17-.067L23.64 12.816a1.08 1.08 0 00.266-.368 1.112 1.112 0 00-.265-1.264z"/>
    </symbol>
  </defs>
</svg>
