<svg width="21" height="14" viewBox="0 0 21 14" fill="none" xmlns="http://www.w3.org/2000/svg">
<path d="M10.8176 9.14113C10.8176 7.52413 10.0485 6.32888 8.4595 5.88088C9.61888 5.32875 10.2235 4.49225 10.2235 3.19113C10.2235 0.625625 8.3055 0 6.09263 0H0V12.8809H6.26325C8.61175 12.8809 10.8176 11.7583 10.8176 9.14113ZM2.84025 2.19888H5.5055C6.53013 2.19888 7.45238 2.48587 7.45238 3.67062C7.45238 4.76438 6.73488 5.2045 5.71988 5.2045H2.84025V2.19888ZM2.83938 10.6934V7.14613H5.93513C7.1855 7.14613 7.9765 7.66588 7.9765 8.98538C7.9765 10.2865 7.03238 10.6934 5.8765 10.6934H2.83938Z" fill="#222222"/>
<path d="M16.4462 13.1252C18.6809 13.1252 20.1282 12.1216 20.8247 9.98836H18.5567C18.3126 10.7846 17.3063 11.2055 16.5258 11.2055C15.02 11.2055 14.229 10.3261 14.229 8.83161H20.9778C21.1913 5.84087 19.5253 3.29199 16.4453 3.29199C13.5937 3.29199 11.6582 5.42874 11.6582 8.22786C11.6582 11.1329 13.4922 13.1252 16.4462 13.1252ZM16.3657 5.22749C17.6563 5.22749 18.3056 5.98349 18.4141 7.21986H14.2325C14.3173 5.99399 15.1337 5.22749 16.3657 5.22749Z" fill="#222222"/>
<path d="M13.707 0.676758H18.9465V1.94551H13.707V0.676758Z" fill="#222222"/>
</svg>
