<svg width="18" height="20" viewBox="0 0 18 20" fill="none" xmlns="http://www.w3.org/2000/svg">
<path d="M4.51042 1.7041H13.4883C15.5479 1.7041 17.2272 3.38794 17.2272 5.47698V14.5227C17.2272 16.6118 15.5479 18.2956 13.4883 18.2956H4.51042C2.45078 18.2956 0.771484 16.6118 0.771484 14.5227V5.47698C0.771484 3.38794 2.45078 1.7041 4.51042 1.7041Z" stroke="white" stroke-width="1.5" stroke-linecap="round" stroke-linejoin="round"/>
<path d="M12.3031 9.51053C12.4062 10.2058 12.2874 10.9158 11.9637 11.5397C11.64 12.1635 11.1278 12.6694 10.5 12.9854C9.87224 13.3014 9.16079 13.4114 8.46688 13.2997C7.77297 13.1881 7.13193 12.8604 6.63495 12.3635C6.13797 11.8665 5.81035 11.2254 5.69869 10.5315C5.58703 9.83762 5.69702 9.12617 6.01301 8.49837C6.329 7.87057 6.8349 7.35839 7.45875 7.03469C8.0826 6.71098 8.79265 6.59223 9.48788 6.69533C10.197 6.80049 10.8536 7.13094 11.3605 7.63788C11.8675 8.14482 12.1979 8.80136 12.3031 9.51053Z" fill="white"/>
<path d="M13.4746 5.1748H13.482" stroke="white" stroke-width="2" stroke-linecap="round" stroke-linejoin="round"/>
</svg>
