<svg width="13" height="16" viewBox="0 0 13 16" fill="none" xmlns="http://www.w3.org/2000/svg">
<path d="M6.66687 0C2.31382 0.000666676 0 2.81071 0 5.87475C0 7.29544 0.788035 9.06813 2.04982 9.63014C2.40976 9.79347 2.36212 9.59414 2.67178 8.40079C2.69626 8.30145 2.68369 8.21545 2.60429 8.12278C0.800606 6.02075 2.25228 1.69936 6.40948 1.69936C12.4259 1.69936 11.3018 10.0875 7.45622 10.0875C6.46506 10.0875 5.72665 9.30346 5.96022 8.33345C6.24341 7.1781 6.79787 5.93608 6.79787 5.10341C6.79787 3.00471 3.6947 3.31605 3.6947 6.09675C3.6947 6.9561 3.99641 7.53611 3.99641 7.53611C3.99641 7.53611 2.99797 11.6002 2.81271 12.3595C2.49908 13.6449 2.85505 15.7256 2.88615 15.9049C2.90534 16.0036 3.01518 16.0349 3.07671 15.9536C3.1753 15.8236 4.38216 14.0889 4.72027 12.8348C4.84334 12.3782 5.34818 10.5248 5.34818 10.5248C5.681 11.1302 6.6404 11.6368 7.66266 11.6368C10.7036 11.6368 12.9017 8.94346 12.9017 5.60141C12.8911 2.39737 10.1697 0 6.66687 0V0Z" fill="#222222"/>
</svg>
