<svg aria-hidden="true" style="position: absolute; width: 0; height: 0; overflow: hidden;" version="1.1" xmlns="http://www.w3.org/2000/svg" xmlns:xlink="http://www.w3.org/1999/xlink">
<defs>
<symbol id="icon-youtube" viewBox="0 0 48 32">
<path stroke-linejoin="round" stroke-linecap="round" stroke-miterlimit="4" stroke-width="3.4" d="M23.998 30.301h-0.038l-0.115-0c-0.101-0-0.251-0.001-0.443-0.002-0.384-0.002-0.937-0.006-1.611-0.013-1.35-0.015-3.184-0.044-5.124-0.103-1.943-0.059-3.978-0.148-5.734-0.279-1.8-0.135-3.162-0.305-3.853-0.493-0.642-0.181-1.232-0.529-1.712-1.016-0.464-0.47-0.809-1.055-1.002-1.702-0.613-3.511-0.91-7.073-0.888-10.64h0l-0-0.019c-0.017-3.55 0.282-7.094 0.893-10.588 0.175-0.679 0.516-1.296 0.987-1.794 0.48-0.507 1.076-0.871 1.729-1.063 0.692-0.187 2.051-0.357 3.845-0.491 1.756-0.131 3.791-0.22 5.734-0.279 1.94-0.059 3.774-0.089 5.124-0.103 0.675-0.007 1.228-0.011 1.611-0.013 0.192-0.001 0.341-0.001 0.443-0.002l0.191-0 0.115 0c0.101 0 0.251 0.001 0.443 0.001 0.384 0.002 0.937 0.005 1.612 0.012 1.351 0.014 3.186 0.041 5.127 0.095 1.944 0.054 3.981 0.135 5.74 0.255 1.778 0.121 3.141 0.275 3.852 0.448 0.645 0.193 1.236 0.556 1.711 1.058 0.471 0.498 0.813 1.115 0.987 1.794 0.616 3.52 0.915 7.092 0.893 10.668v0 0.016c0.012 3.523-0.287 7.040-0.893 10.507-0.175 0.679-0.516 1.296-0.987 1.794-0.48 0.507-1.076 0.872-1.729 1.063-0.692 0.187-2.051 0.357-3.845 0.491-1.756 0.131-3.791 0.22-5.734 0.279-1.94 0.059-3.774 0.089-5.124 0.103-0.675 0.007-1.228 0.011-1.611 0.013-0.192 0.001-0.341 0.001-0.443 0.002l-0.153 0z"></path>
<path d="M19.441 22.809l11.615-6.769-11.615-6.769v13.538z"></path>
</symbol>
<symbol id="icon-pinterest" viewBox="0 0 26 32">
<path d="M13.334 0c-8.706 0.001-13.334 5.621-13.334 11.749 0 2.841 1.576 6.387 4.1 7.511 0.72 0.327 0.625-0.072 1.244-2.459 0.049-0.199 0.024-0.371-0.135-0.556-3.607-4.204-0.704-12.847 7.61-12.847 12.033 0 9.785 16.776 2.093 16.776-1.982 0-3.459-1.568-2.992-3.508 0.566-2.311 1.675-4.795 1.675-6.46 0-4.197-6.206-3.575-6.206 1.987 0 1.719 0.603 2.879 0.603 2.879s-1.997 8.128-2.367 9.647c-0.627 2.571 0.085 6.732 0.147 7.091 0.038 0.197 0.258 0.26 0.381 0.097 0.197-0.26 2.611-3.729 3.287-6.238 0.246-0.913 1.256-4.62 1.256-4.62 0.666 1.211 2.584 2.224 4.629 2.224 6.082 0 10.478-5.387 10.478-12.071-0.021-6.408-5.464-11.203-12.47-11.203v0z"></path>
</symbol>
<symbol id="icon-linkedin" viewBox="0 0 30 32">
<path d="M0 10h6v22h-6v-22z"></path>
<path d="M22.457 10c-3.535 0-5.905 3.622-5.905 3.622v-3.117h-6.552v21.495h6.552v-12.004c0-0.643 0.043-1.284 0.216-1.744 0.474-1.283 1.552-2.613 3.362-2.613 2.371 0 3.319 1.971 3.319 4.861v11.499h6.552v-12.325c0-6.602-3.233-9.675-7.543-9.675z"></path>
<path d="M6 3c0 1.657-1.343 3-3 3s-3-1.343-3-3c0-1.657 1.343-3 3-3s3 1.343 3 3z"></path>
</symbol>
<symbol id="icon-instagram" viewBox="0 0 18 20">
<path d="M4.51042 1.7041H13.4883C15.5479 1.7041 17.2272 3.38794 17.2272 5.47698V14.5227C17.2272 16.6118 15.5479 18.2956 13.4883 18.2956H4.51042C2.45078 18.2956 0.771484 16.6118 0.771484 14.5227V5.47698C0.771484 3.38794 2.45078 1.7041 4.51042 1.7041Z"  stroke-width="1.5" stroke-linecap="round" stroke-linejoin="round"/>
<path d="M12.3031 9.51053C12.4062 10.2058 12.2874 10.9158 11.9637 11.5397C11.64 12.1635 11.1278 12.6694 10.5 12.9854C9.87224 13.3014 9.16079 13.4114 8.46688 13.2997C7.77297 13.1881 7.13193 12.8604 6.63495 12.3635C6.13797 11.8665 5.81035 11.2254 5.69869 10.5315C5.58703 9.83762 5.69702 9.12617 6.01301 8.49837C6.329 7.87057 6.8349 7.35839 7.45875 7.03469C8.0826 6.71098 8.79265 6.59223 9.48788 6.69533C10.197 6.80049 10.8536 7.13094 11.3605 7.63788C11.8675 8.14482 12.1979 8.80136 12.3031 9.51053Z" />
<path d="M13.4746 5.1748H13.482"  stroke-width="2" stroke-linecap="round" stroke-linejoin="round"/></symbol>
<symbol id="icon-facebook" viewBox="0 0 16 32">
<path d="M16 0h-4.364c-1.929 0-3.779 0.843-5.143 2.343s-2.13 3.535-2.13 5.657v4.8h-4.364v6.4h4.364v12.8h5.818v-12.8h4.364l1.455-6.4h-5.818v-4.8c0-0.424 0.153-0.831 0.426-1.131s0.643-0.469 1.029-0.469h4.364v-6.4z"></path>
</symbol>
<symbol id="icon-behance" viewBox="0 0 48 32">
<path d="M24.726 20.894c0-3.696-1.758-6.428-5.39-7.452 2.65-1.262 4.032-3.174 4.032-6.148 0-5.864-4.384-7.294-9.442-7.294h-13.926v29.442h14.316c5.368 0 10.41-2.566 10.41-8.548zM6.492 5.026h6.092c2.342 0 4.45 0.656 4.45 3.364 0 2.5-1.64 3.506-3.96 3.506h-6.582v-6.87zM6.49 24.442v-8.108h7.076c2.858 0 4.666 1.188 4.666 4.204 0 2.974-2.158 3.904-4.8 3.904h-6.942z"></path>
<path d="M37.591 30c5.108 0 8.416-2.294 10.008-7.17h-5.184c-0.558 1.82-2.858 2.782-4.642 2.782-3.442 0-5.25-2.010-5.25-5.426h15.426c0.488-6.836-3.32-12.662-10.36-12.662-6.518 0-10.942 4.884-10.942 11.282 0 6.64 4.192 11.194 10.944 11.194zM37.407 11.949c2.95 0 4.434 1.728 4.682 4.554h-9.558c0.194-2.802 2.060-4.554 4.876-4.554z"></path>
<path d="M31.33 1.547h11.976v2.9h-11.976v-2.9z"></path>
</symbol>
<symbol id="icon-arrow_up" viewBox="0 0 28 32">
<path d="M1.607 11.605c-0.586 0.586-0.586 1.536 0 2.121s1.536 0.586 2.121 0l8.771-8.771v25.379c0 0.828 0.672 1.5 1.5 1.5s1.5-0.672 1.5-1.5v-25.343l8.736 8.736c0.586 0.586 1.535 0.586 2.121 0s0.586-1.536 0-2.121l-11.032-11.032c-0.742-0.742-1.945-0.742-2.687 0l-11.031 11.031z"></path>
</symbol>
</defs>
</svg>
