<svg width="24" height="16" viewBox="0 0 24 16" fill="none" xmlns="http://www.w3.org/2000/svg">
<path d="M11.9991 15.1503L11.999 16.0003L11.999 15.1503H11.9988H11.998L11.9945 15.1503L11.98 15.1503L11.9225 15.1502C11.8719 15.1501 11.7971 15.1498 11.7012 15.1494C11.5093 15.1485 11.2328 15.1466 10.8955 15.1429C10.2205 15.1355 9.30342 15.1207 8.33343 15.0912C7.36204 15.0616 6.34455 15.0174 5.46658 14.9518C4.56649 14.8845 3.88542 14.7992 3.54032 14.7051C3.21943 14.6147 2.92435 14.4406 2.6844 14.1972C2.45243 13.962 2.27965 13.6697 2.1833 13.346C1.87696 11.5904 1.7283 9.80964 1.73923 8.02606L1.73928 8.02606L1.73924 8.01675C1.73068 6.24179 1.88016 4.46979 2.1858 2.72281C2.27314 2.38335 2.44383 2.0746 2.67948 1.82566C2.91928 1.57233 3.2177 1.38993 3.5439 1.2942C3.89012 1.20049 4.5696 1.11552 5.46658 1.04848C6.34455 0.982859 7.36204 0.938695 8.33343 0.909116C9.30342 0.879579 10.2205 0.864787 10.8955 0.857388C11.2328 0.85369 11.5093 0.851843 11.7012 0.85092C11.7971 0.850459 11.8719 0.850229 11.9225 0.850114L11.98 0.850014L11.9945 0.850002L11.998 0.85L11.9988 0.85H11.999L11.999 0L11.9991 0.85H11.9992L12.0001 0.85L12.0037 0.850002L12.0182 0.850013L12.0757 0.850104C12.1264 0.850209 12.2013 0.850419 12.2973 0.850841C12.4893 0.851684 12.7659 0.853371 13.1034 0.856749C13.7787 0.863508 14.6963 0.877021 15.6669 0.904007C16.6388 0.931027 17.6575 0.971389 18.537 1.03141C19.4259 1.09207 20.1074 1.16913 20.4631 1.25545C20.7858 1.35187 21.081 1.53325 21.3186 1.78426C21.5542 2.03321 21.7249 2.34195 21.8123 2.68142C22.1203 4.44163 22.2698 6.22723 22.2588 8.01564H22.2588L22.2588 8.02383C22.265 9.78535 22.1155 11.5438 21.8123 13.2775C21.7249 13.617 21.5542 13.9257 21.3186 14.1746C21.0788 14.428 20.7804 14.6104 20.4541 14.7061C20.1079 14.7998 19.4285 14.8848 18.5315 14.9518C17.6535 15.0174 16.636 15.0616 15.6646 15.0912C14.6946 15.1207 13.7776 15.1355 13.1026 15.1429C12.7653 15.1466 12.4888 15.1485 12.2969 15.1494C12.201 15.1498 12.1262 15.1501 12.0756 15.1502L12.0181 15.1503L12.0036 15.1503L12.0001 15.1503H11.9992H11.9991Z" stroke="#222222" stroke-width="1.7" stroke-linecap="round" stroke-linejoin="round"/>
<path d="M9.7207 11.4047L15.5281 8.02023L9.7207 4.63574V11.4047Z" fill="#222222"/>
</svg>
