<svg width="77" height="47" viewBox="0 0 77 47" fill="none" xmlns="http://www.w3.org/2000/svg">
<path d="M21.6982 16.9466C21.6982 18.0225 21.5633 18.997 21.2935 19.8701C21.0237 20.7343 20.6145 21.4796 20.0659 22.1057C19.5263 22.7231 18.8473 23.1993 18.0288 23.5344C17.2104 23.8695 16.2571 24.0371 15.1689 24.0371C14.6742 24.0371 14.1841 24.0062 13.6984 23.9445C13.2218 23.8916 12.7181 23.8033 12.1875 23.6799C12.2235 23.2919 12.2594 22.9038 12.2954 22.5158C12.3314 22.1278 12.3673 21.7397 12.4033 21.3517C12.4303 21.14 12.5157 20.9724 12.6597 20.849C12.8036 20.7167 13.0104 20.6506 13.2802 20.6506C13.4331 20.6506 13.6265 20.677 13.8603 20.7299C14.1031 20.7829 14.3999 20.8093 14.7507 20.8093C15.2363 20.8093 15.659 20.7432 16.0188 20.6109C16.3785 20.4786 16.6798 20.2626 16.9226 19.9627C17.1655 19.6628 17.3453 19.2748 17.4622 18.7986C17.5881 18.3135 17.6511 17.7271 17.6511 17.0392V4.63086H21.6982V16.9466Z" fill="#222222"/>
<path d="M32.52 8.20168C31.6117 8.24575 30.8562 8.32512 30.2536 8.43979C29.651 8.54562 29.1699 8.68675 28.8101 8.8631C28.4594 9.03946 28.2075 9.24235 28.0547 9.47161C27.9107 9.69212 27.8388 9.93461 27.8388 10.1992C27.8388 10.7283 27.9872 11.1031 28.284 11.3236C28.5898 11.5441 29.0125 11.6543 29.5521 11.6543C30.1726 11.6543 30.7078 11.5485 31.1574 11.3368C31.6161 11.1163 32.0703 10.7769 32.52 10.3182V8.20168ZM24.9384 2.15625C25.7568 1.43306 26.6607 0.895157 27.6499 0.542369C28.6392 0.180817 29.7095 0 30.8607 0C31.688 0 32.4255 0.132286 33.0731 0.396857C33.7296 0.661427 34.2828 1.03183 34.7324 1.50805C35.1911 1.97543 35.5418 2.53549 35.7847 3.18807C36.0275 3.84065 36.1489 4.55499 36.1489 5.33109V13.9032H34.4491C34.0984 13.9032 33.8285 13.8546 33.6397 13.7577C33.4598 13.6607 33.3114 13.4578 33.1945 13.1491L32.8977 12.2761C32.547 12.5759 32.2052 12.8405 31.8724 13.0698C31.5487 13.299 31.2114 13.4931 30.8607 13.6518C30.5099 13.8017 30.1322 13.9164 29.7275 13.9958C29.3318 14.0751 28.8866 14.1148 28.3919 14.1148C27.7804 14.1148 27.2227 14.0355 26.7191 13.8767C26.2155 13.718 25.7792 13.4842 25.4105 13.1756C25.0508 12.8581 24.772 12.4656 24.5741 11.9983C24.3762 11.5309 24.2773 10.9929 24.2773 10.3844C24.2773 9.8817 24.4078 9.37902 24.6686 8.87633C24.9294 8.37365 25.3745 7.9195 26.0041 7.5138C26.6426 7.09933 27.4881 6.75977 28.5403 6.4952C29.6016 6.22178 30.9281 6.06751 32.52 6.0322V5.33109C32.52 4.47562 32.3356 3.8495 31.9669 3.45264C31.5982 3.04694 31.0675 2.84413 30.375 2.84413C29.8624 2.84413 29.4351 2.90589 29.0934 3.02933C28.7517 3.14401 28.4503 3.27183 28.1896 3.41296C27.9377 3.54524 27.6994 3.67315 27.4746 3.79658C27.2497 3.91126 26.9889 3.96855 26.6921 3.96855C26.4313 3.96855 26.2109 3.90679 26.0311 3.78335C25.8602 3.65107 25.7163 3.49671 25.5994 3.32036L24.9384 2.15625Z" fill="#222222"/>
<path d="M49.4219 12.0167C49.4219 12.2725 49.3769 12.5238 49.287 12.7708C49.197 13.0089 49.0801 13.2029 48.9362 13.3528L42.6902 21.4222H51.1569V24.1737H38.3867V22.6657C38.3867 22.5158 38.4272 22.3261 38.5081 22.0969C38.5981 21.8676 38.7195 21.6515 38.8724 21.4487L45.1724 13.2867H38.7779V10.5352H49.4219V12.0167Z" fill="#222222"/>
<path d="M64.2363 1.48159C64.2363 1.73732 64.1913 1.98866 64.1014 2.23562C64.0115 2.47373 63.8945 2.66777 63.7507 2.81767L57.5046 10.8871H64.061V13.6386H53.2012V12.1305C53.2012 11.9806 53.2416 11.791 53.3226 11.5617C53.4125 11.3324 53.5339 11.1163 53.6868 10.9135L59.9868 2.75153H53.5924V0H64.2363V1.48159Z" fill="#222222"/>
<path d="M3.49401 34.5115C3.93469 33.7354 4.44283 33.1225 5.01842 32.6727C5.59401 32.2229 6.26853 31.998 7.04194 31.998C7.67152 31.998 8.18415 32.1436 8.57984 32.4346L8.33702 35.1332C8.29208 35.3096 8.22016 35.4331 8.12117 35.5036C8.03129 35.5654 7.90532 35.5962 7.74344 35.5962C7.5996 35.5962 7.39269 35.5786 7.12288 35.5433C6.85308 35.4992 6.60129 35.4771 6.36746 35.4771C6.0257 35.4771 5.71992 35.5257 5.45012 35.6227C5.1893 35.7196 4.95547 35.8564 4.74862 36.0327C4.54176 36.2091 4.35289 36.4252 4.18202 36.6809C4.02014 36.9367 3.86724 37.2277 3.72335 37.554V45.9012H0V32.2626H2.19893C2.57666 32.2626 2.83748 32.3288 2.98138 32.461C3.12527 32.5933 3.2287 32.8226 3.29165 33.1489L3.49401 34.5115Z" fill="#222222"/>
<path d="M18.3498 37.4745C18.3498 37.0952 18.2959 36.7337 18.188 36.3897C18.0891 36.0458 17.9272 35.7415 17.7023 35.477C17.4775 35.2124 17.1942 35.0051 16.8524 34.8552C16.5107 34.6965 16.1015 34.6171 15.6248 34.6171C14.7344 34.6171 14.0375 34.8641 13.5338 35.3579C13.0302 35.8517 12.7019 36.5573 12.549 37.4745H18.3498ZM12.495 39.6439C12.612 40.9227 12.9807 41.8575 13.6012 42.4484C14.2308 43.0393 15.0493 43.3347 16.0565 43.3347C16.5691 43.3347 17.0098 43.2774 17.3785 43.1627C17.7563 43.0393 18.0846 42.907 18.3633 42.7659C18.6512 42.616 18.9075 42.4837 19.1323 42.369C19.3662 42.2456 19.5955 42.1838 19.8203 42.1838C20.1081 42.1838 20.3329 42.2896 20.4948 42.5013L21.574 43.8241C21.1784 44.2739 20.7422 44.6487 20.2655 44.9486C19.7888 45.2396 19.2942 45.4733 18.7815 45.6497C18.2689 45.8173 17.7518 45.9319 17.2301 45.9936C16.7086 46.0641 16.2049 46.0994 15.7192 46.0994C14.7479 46.0994 13.8396 45.9451 12.9942 45.6365C12.1578 45.319 11.4248 44.856 10.7952 44.2475C10.1747 43.6301 9.68454 42.8673 9.32477 41.9589C8.96508 41.0505 8.78516 39.9967 8.78516 38.7973C8.78516 37.8713 8.9381 36.9982 9.24383 36.1781C9.55866 35.3579 10.0083 34.6436 10.5929 34.0351C11.1775 33.4265 11.8879 32.9459 12.7244 32.5931C13.5608 32.2316 14.5051 32.0508 15.5573 32.0508C16.4477 32.0508 17.2661 32.1919 18.0126 32.4741C18.768 32.7475 19.4156 33.1487 19.9552 33.6779C20.5038 34.207 20.9265 34.8596 21.2233 35.6357C21.5291 36.403 21.682 37.2804 21.682 38.2682C21.682 38.5416 21.6685 38.7665 21.6415 38.9428C21.6145 39.1192 21.5696 39.2603 21.5066 39.3661C21.4437 39.472 21.3582 39.547 21.2503 39.591C21.1424 39.6263 21.003 39.6439 20.8321 39.6439H12.495Z" fill="#222222"/>
<path d="M27.3989 33.8499C27.6777 33.5853 27.9654 33.3428 28.2622 33.1223C28.568 32.9018 28.8873 32.7122 29.2201 32.5535C29.5618 32.3947 29.926 32.2713 30.3128 32.1831C30.7085 32.0949 31.1357 32.0508 31.5944 32.0508C32.3498 32.0508 33.0199 32.1787 33.6044 32.4344C34.189 32.6901 34.6792 33.0473 35.0749 33.5059C35.4796 33.9645 35.7808 34.5113 35.9787 35.1463C36.1856 35.7812 36.289 36.4779 36.289 37.2364V45.901H32.5792V37.2364C32.5792 36.4779 32.3993 35.8914 32.0395 35.477C31.6798 35.0536 31.1492 34.842 30.4477 34.842C29.926 34.842 29.4359 34.9522 28.9772 35.1727C28.5186 35.3932 28.0824 35.7018 27.6687 36.0987V45.901H23.9453V32.2624H26.2387C26.7064 32.2624 27.0167 32.4741 27.1695 32.8974L27.3989 33.8499Z" fill="#222222"/>
<path d="M47.4238 35.8082C47.073 35.4114 46.6907 35.1336 46.2771 34.9749C45.8724 34.8161 45.4407 34.7367 44.982 34.7367C44.5323 34.7367 44.1231 34.8205 43.7544 34.9881C43.3856 35.1557 43.0664 35.4202 42.7966 35.7818C42.5357 36.1346 42.3333 36.5887 42.1895 37.1443C42.0456 37.6999 41.9737 38.3614 41.9737 39.1286C41.9737 39.887 42.0321 40.5308 42.149 41.06C42.2659 41.5891 42.4323 42.0168 42.6482 42.3431C42.873 42.6695 43.1428 42.9076 43.4576 43.0575C43.7723 43.1986 44.1231 43.2691 44.5098 43.2691C45.1663 43.2691 45.715 43.1412 46.1557 42.8855C46.6053 42.6298 47.028 42.2681 47.4238 41.8008V35.8082ZM51.1471 22.4844V45.9016H48.8537C48.377 45.9016 48.0713 45.69 47.9364 45.2666L47.6261 44.0761C47.3473 44.3759 47.0505 44.6493 46.7358 44.8962C46.4299 45.1432 46.0972 45.3592 45.7375 45.5444C45.3777 45.7208 44.9909 45.8575 44.5773 45.9545C44.1636 46.0515 43.7139 46.1 43.2283 46.1C42.4817 46.1 41.7983 45.9457 41.1777 45.637C40.5572 45.3284 40.0176 44.8786 39.5589 44.2877C39.1091 43.6881 38.7584 42.956 38.5066 42.0918C38.2548 41.2276 38.1289 40.2398 38.1289 39.1286C38.1289 38.1144 38.2683 37.1708 38.5471 36.2977C38.8349 35.4246 39.2396 34.6706 39.7612 34.0356C40.2828 33.4007 40.9124 32.9024 41.6499 32.5408C42.3873 32.1793 43.2057 31.9984 44.1051 31.9984C44.8606 31.9984 45.4946 32.1086 46.0073 32.3292C46.5288 32.5497 47.001 32.8494 47.4238 33.2287V22.4844H51.1471Z" fill="#222222"/>
<path d="M63.0159 37.4745C63.0159 37.0952 62.9619 36.7337 62.854 36.3897C62.7551 36.0458 62.5932 35.7415 62.3683 35.477C62.1435 35.2124 61.8602 35.0051 61.5184 34.8552C61.1767 34.6965 60.7675 34.6171 60.2908 34.6171C59.4004 34.6171 58.7035 34.8641 58.1998 35.3579C57.6962 35.8517 57.3679 36.5573 57.215 37.4745H63.0159ZM57.161 39.6439C57.278 40.9227 57.6467 41.8575 58.2672 42.4484C58.8968 43.0393 59.7153 43.3347 60.7225 43.3347C61.2351 43.3347 61.6758 43.2774 62.0445 43.1627C62.4223 43.0393 62.7506 42.907 63.0293 42.7659C63.3172 42.616 63.5735 42.4837 63.7983 42.369C64.0322 42.2456 64.2615 42.1838 64.4863 42.1838C64.7741 42.1838 64.9989 42.2896 65.1608 42.5013L66.24 43.8241C65.8444 44.2739 65.4082 44.6487 64.9315 44.9486C64.4548 45.2396 63.9602 45.4733 63.4475 45.6497C62.9349 45.8173 62.4178 45.9319 61.8961 45.9936C61.3746 46.0641 60.8709 46.0994 60.3852 46.0994C59.4139 46.0994 58.5056 45.9451 57.6602 45.6365C56.8238 45.319 56.0908 44.856 55.4612 44.2475C54.8407 43.6301 54.3506 42.8673 53.9908 41.9589C53.6311 41.0505 53.4512 39.9967 53.4512 38.7973C53.4512 37.8713 53.6041 36.9982 53.9098 36.1781C54.2247 35.3579 54.6743 34.6436 55.2589 34.0351C55.8435 33.4265 56.554 32.9459 57.3904 32.5931C58.2268 32.2316 59.1711 32.0508 60.2233 32.0508C61.1137 32.0508 61.9321 32.1919 62.6786 32.4741C63.434 32.7475 64.0816 33.1487 64.6212 33.6779C65.1698 34.207 65.5925 34.8596 65.8893 35.6357C66.1951 36.403 66.348 37.2804 66.348 38.2682C66.348 38.5416 66.3345 38.7665 66.3075 38.9428C66.2805 39.1192 66.2356 39.2603 66.1726 39.3661C66.1097 39.472 66.0242 39.547 65.9163 39.591C65.8084 39.6263 65.669 39.6439 65.4981 39.6439H57.161Z" fill="#222222"/>
<path d="M71.7264 34.5115C72.1671 33.7354 72.6752 33.1225 73.2508 32.6727C73.8264 32.2229 74.5009 31.998 75.2744 31.998C75.9039 31.998 76.4165 32.1436 76.8123 32.4346L76.5695 35.1332C76.5244 35.3096 76.4525 35.4331 76.3536 35.5036C76.2637 35.5654 76.1378 35.5962 75.9759 35.5962C75.832 35.5962 75.6251 35.5786 75.3553 35.5433C75.0855 35.4992 74.8337 35.4771 74.5999 35.4771C74.2581 35.4771 73.9523 35.5257 73.6825 35.6227C73.4217 35.7196 73.1879 35.8564 72.981 36.0327C72.7741 36.2091 72.5853 36.4252 72.4144 36.6809C72.2525 36.9367 72.0996 37.2277 71.9558 37.554V45.9012H68.2324V32.2626H70.4314C70.8091 32.2626 71.0699 32.3288 71.2138 32.461C71.3576 32.5933 71.4611 32.8226 71.5241 33.1489L71.7264 34.5115Z" fill="#222222"/>
</svg>
